<svg width="766" height="420" viewBox="0 0 766 420" fill="none" xmlns="http://www.w3.org/2000/svg">
<rect x="0.5" y="0.5" width="765" height="419" rx="24.5" fill="#1E1E1E"/>
<rect x="0.5" y="0.5" width="765" height="419" rx="24.5" stroke="#E6E6E6"/>
<rect x="250.5" y="75.5" width="226" height="54" rx="14.5" fill="#CCD2D7" stroke="black"/>
<path d="M295.289 99.6378C295.232 99.0649 294.988 98.6198 294.558 98.3026C294.127 97.9853 293.542 97.8267 292.803 97.8267C292.301 97.8267 291.878 97.8977 291.532 98.0398C291.186 98.1771 290.921 98.3688 290.737 98.6151C290.557 98.8613 290.467 99.1406 290.467 99.4531C290.457 99.7135 290.512 99.9408 290.63 100.135C290.753 100.329 290.921 100.497 291.134 100.639C291.347 100.777 291.594 100.897 291.873 101.001C292.152 101.101 292.451 101.186 292.768 101.257L294.075 101.57C294.709 101.712 295.291 101.901 295.822 102.138C296.352 102.375 296.811 102.666 297.2 103.011C297.588 103.357 297.889 103.764 298.102 104.233C298.319 104.702 298.431 105.239 298.435 105.845C298.431 106.735 298.203 107.507 297.754 108.161C297.309 108.809 296.665 109.313 295.822 109.673C294.984 110.028 293.973 110.206 292.789 110.206C291.615 110.206 290.592 110.026 289.721 109.666C288.854 109.306 288.177 108.774 287.69 108.068C287.207 107.358 286.953 106.48 286.93 105.433H289.906C289.939 105.921 290.078 106.328 290.325 106.655C290.576 106.977 290.909 107.221 291.326 107.386C291.747 107.547 292.223 107.628 292.754 107.628C293.274 107.628 293.727 107.552 294.11 107.401C294.498 107.249 294.799 107.038 295.012 106.768C295.225 106.499 295.332 106.188 295.332 105.838C295.332 105.511 295.235 105.237 295.041 105.014C294.851 104.792 294.572 104.602 294.202 104.446C293.838 104.29 293.39 104.148 292.86 104.02L291.276 103.622C290.05 103.324 289.082 102.857 288.371 102.223C287.661 101.589 287.309 100.734 287.313 99.6591C287.309 98.7784 287.543 98.009 288.016 97.3509C288.495 96.6927 289.15 96.179 289.984 95.8097C290.817 95.4403 291.764 95.2557 292.825 95.2557C293.904 95.2557 294.846 95.4403 295.651 95.8097C296.461 96.179 297.091 96.6927 297.541 97.3509C297.99 98.009 298.222 98.7713 298.237 99.6378H295.289ZM300.447 114.091V99.0909H303.43V100.923H303.565C303.698 100.63 303.889 100.331 304.14 100.028C304.396 99.7206 304.727 99.465 305.135 99.2614C305.547 99.053 306.058 98.9489 306.669 98.9489C307.464 98.9489 308.198 99.1572 308.87 99.5739C309.543 99.9858 310.08 100.608 310.483 101.442C310.885 102.27 311.086 103.31 311.086 104.56C311.086 105.777 310.89 106.804 310.497 107.642C310.109 108.475 309.578 109.107 308.906 109.538C308.238 109.964 307.49 110.178 306.662 110.178C306.074 110.178 305.575 110.08 305.163 109.886C304.756 109.692 304.422 109.448 304.162 109.155C303.901 108.857 303.702 108.556 303.565 108.253H303.473V114.091H300.447ZM303.409 104.545C303.409 105.194 303.499 105.76 303.679 106.243C303.859 106.726 304.119 107.102 304.46 107.372C304.801 107.637 305.215 107.77 305.703 107.77C306.195 107.77 306.612 107.635 306.953 107.365C307.294 107.09 307.552 106.712 307.727 106.229C307.907 105.741 307.997 105.18 307.997 104.545C307.997 103.916 307.909 103.362 307.734 102.884C307.559 102.405 307.301 102.031 306.96 101.761C306.619 101.491 306.2 101.357 305.703 101.357C305.21 101.357 304.794 101.487 304.453 101.747C304.117 102.008 303.859 102.377 303.679 102.855C303.499 103.333 303.409 103.897 303.409 104.545ZM316.214 110.206C315.518 110.206 314.898 110.085 314.353 109.844C313.809 109.598 313.378 109.235 313.061 108.757C312.748 108.274 312.592 107.673 312.592 106.953C312.592 106.347 312.703 105.838 312.926 105.426C313.148 105.014 313.451 104.683 313.835 104.432C314.218 104.181 314.654 103.991 315.142 103.864C315.634 103.736 316.15 103.646 316.69 103.594C317.325 103.527 317.836 103.466 318.224 103.409C318.612 103.348 318.894 103.258 319.069 103.139C319.244 103.021 319.332 102.846 319.332 102.614V102.571C319.332 102.121 319.19 101.773 318.906 101.527C318.627 101.281 318.229 101.158 317.713 101.158C317.168 101.158 316.735 101.278 316.413 101.52C316.091 101.757 315.878 102.055 315.774 102.415L312.976 102.188C313.118 101.525 313.397 100.952 313.814 100.469C314.23 99.9811 314.768 99.607 315.426 99.3466C316.089 99.0814 316.856 98.9489 317.727 98.9489C318.333 98.9489 318.913 99.0199 319.467 99.1619C320.026 99.304 320.521 99.5241 320.951 99.8224C321.387 100.121 321.73 100.504 321.981 100.973C322.232 101.437 322.358 101.993 322.358 102.642V110H319.488V108.487H319.403C319.228 108.828 318.994 109.129 318.7 109.389C318.406 109.645 318.054 109.846 317.642 109.993C317.23 110.135 316.754 110.206 316.214 110.206ZM317.081 108.118C317.526 108.118 317.919 108.03 318.26 107.855C318.601 107.675 318.868 107.434 319.062 107.131C319.256 106.828 319.353 106.484 319.353 106.101V104.943C319.259 105.005 319.128 105.062 318.963 105.114C318.802 105.161 318.619 105.206 318.416 105.249C318.212 105.286 318.009 105.322 317.805 105.355C317.601 105.384 317.417 105.41 317.251 105.433C316.896 105.485 316.586 105.568 316.321 105.682C316.056 105.795 315.85 105.949 315.703 106.143C315.556 106.333 315.483 106.57 315.483 106.854C315.483 107.266 315.632 107.58 315.93 107.798C316.233 108.011 316.617 108.118 317.081 108.118ZM327.731 103.693V110H324.705V99.0909H327.588V101.016H327.716C327.958 100.381 328.363 99.8793 328.931 99.5099C329.499 99.1359 330.188 98.9489 330.998 98.9489C331.755 98.9489 332.416 99.1146 332.979 99.446C333.543 99.7775 333.981 100.251 334.293 100.866C334.606 101.477 334.762 102.206 334.762 103.054V110H331.736V103.594C331.741 102.926 331.57 102.405 331.225 102.031C330.879 101.652 330.403 101.463 329.797 101.463C329.39 101.463 329.03 101.551 328.718 101.726C328.41 101.901 328.168 102.157 327.993 102.493C327.823 102.824 327.735 103.224 327.731 103.693ZM346.223 102.202L343.453 102.372C343.406 102.135 343.304 101.922 343.148 101.733C342.992 101.539 342.786 101.385 342.53 101.271C342.279 101.153 341.978 101.094 341.628 101.094C341.159 101.094 340.764 101.193 340.442 101.392C340.12 101.586 339.959 101.847 339.959 102.173C339.959 102.434 340.063 102.654 340.271 102.834C340.48 103.014 340.837 103.158 341.344 103.267L343.318 103.665C344.379 103.883 345.17 104.233 345.69 104.716C346.211 105.199 346.472 105.833 346.472 106.619C346.472 107.334 346.261 107.962 345.84 108.501C345.423 109.041 344.85 109.463 344.121 109.766C343.396 110.064 342.561 110.213 341.614 110.213C340.17 110.213 339.019 109.912 338.162 109.311C337.31 108.705 336.81 107.881 336.663 106.839L339.639 106.683C339.729 107.124 339.947 107.46 340.293 107.692C340.638 107.919 341.081 108.033 341.621 108.033C342.151 108.033 342.577 107.931 342.899 107.727C343.226 107.519 343.392 107.251 343.396 106.925C343.392 106.65 343.276 106.425 343.048 106.25C342.821 106.07 342.471 105.933 341.997 105.838L340.108 105.462C339.043 105.249 338.25 104.879 337.729 104.354C337.213 103.828 336.955 103.158 336.955 102.344C336.955 101.643 337.144 101.039 337.523 100.533C337.906 100.026 338.444 99.6354 339.135 99.3608C339.831 99.0862 340.645 98.9489 341.578 98.9489C342.956 98.9489 344.04 99.2401 344.831 99.8224C345.626 100.405 346.09 101.198 346.223 102.202ZM357.935 110.213C356.817 110.213 355.856 109.976 355.051 109.503C354.251 109.025 353.635 108.362 353.205 107.514C352.778 106.667 352.565 105.691 352.565 104.588C352.565 103.471 352.781 102.491 353.212 101.648C353.647 100.8 354.265 100.14 355.065 99.6662C355.866 99.188 356.817 98.9489 357.92 98.9489C358.872 98.9489 359.706 99.1217 360.42 99.4673C361.135 99.813 361.701 100.298 362.118 100.923C362.535 101.548 362.764 102.282 362.807 103.125H359.952C359.871 102.58 359.658 102.143 359.313 101.811C358.972 101.475 358.524 101.307 357.97 101.307C357.501 101.307 357.092 101.435 356.742 101.69C356.396 101.941 356.126 102.308 355.932 102.791C355.738 103.274 355.641 103.859 355.641 104.545C355.641 105.241 355.735 105.833 355.925 106.321C356.119 106.809 356.391 107.18 356.742 107.436C357.092 107.692 357.501 107.82 357.97 107.82C358.316 107.82 358.626 107.749 358.901 107.607C359.18 107.464 359.41 107.259 359.59 106.989C359.774 106.714 359.895 106.385 359.952 106.001H362.807C362.76 106.835 362.532 107.569 362.125 108.203C361.723 108.833 361.166 109.325 360.456 109.68C359.746 110.036 358.905 110.213 357.935 110.213ZM369.673 110.213C368.57 110.213 367.616 109.979 366.811 109.51C366.011 109.036 365.393 108.378 364.957 107.536C364.521 106.688 364.304 105.705 364.304 104.588C364.304 103.461 364.521 102.476 364.957 101.634C365.393 100.786 366.011 100.128 366.811 99.6591C367.616 99.1856 368.57 98.9489 369.673 98.9489C370.776 98.9489 371.728 99.1856 372.528 99.6591C373.333 100.128 373.953 100.786 374.389 101.634C374.825 102.476 375.042 103.461 375.042 104.588C375.042 105.705 374.825 106.688 374.389 107.536C373.953 108.378 373.333 109.036 372.528 109.51C371.728 109.979 370.776 110.213 369.673 110.213ZM369.687 107.869C370.189 107.869 370.608 107.727 370.944 107.443C371.28 107.154 371.534 106.761 371.704 106.264C371.879 105.767 371.967 105.201 371.967 104.567C371.967 103.932 371.879 103.366 371.704 102.869C371.534 102.372 371.28 101.979 370.944 101.69C370.608 101.402 370.189 101.257 369.687 101.257C369.181 101.257 368.754 101.402 368.409 101.69C368.068 101.979 367.81 102.372 367.635 102.869C367.464 103.366 367.379 103.932 367.379 104.567C367.379 105.201 367.464 105.767 367.635 106.264C367.81 106.761 368.068 107.154 368.409 107.443C368.754 107.727 369.181 107.869 369.687 107.869ZM380.035 103.693V110H377.01V99.0909H379.893V101.016H380.021C380.262 100.381 380.667 99.8793 381.235 99.5099C381.804 99.1359 382.493 98.9489 383.302 98.9489C384.06 98.9489 384.72 99.1146 385.284 99.446C385.847 99.7775 386.285 100.251 386.598 100.866C386.91 101.477 387.066 102.206 387.066 103.054V110H384.041V103.594C384.046 102.926 383.875 102.405 383.53 102.031C383.184 101.652 382.708 101.463 382.102 101.463C381.695 101.463 381.335 101.551 381.022 101.726C380.715 101.901 380.473 102.157 380.298 102.493C380.128 102.824 380.04 103.224 380.035 103.693ZM398.528 102.202L395.758 102.372C395.711 102.135 395.609 101.922 395.452 101.733C395.296 101.539 395.09 101.385 394.835 101.271C394.584 101.153 394.283 101.094 393.933 101.094C393.464 101.094 393.068 101.193 392.746 101.392C392.425 101.586 392.264 101.847 392.264 102.173C392.264 102.434 392.368 102.654 392.576 102.834C392.784 103.014 393.142 103.158 393.648 103.267L395.623 103.665C396.684 103.883 397.474 104.233 397.995 104.716C398.516 105.199 398.776 105.833 398.776 106.619C398.776 107.334 398.566 107.962 398.144 108.501C397.728 109.041 397.155 109.463 396.425 109.766C395.701 110.064 394.865 110.213 393.918 110.213C392.474 110.213 391.324 109.912 390.467 109.311C389.614 108.705 389.115 107.881 388.968 106.839L391.944 106.683C392.034 107.124 392.252 107.46 392.597 107.692C392.943 107.919 393.386 108.033 393.925 108.033C394.456 108.033 394.882 107.931 395.204 107.727C395.531 107.519 395.696 107.251 395.701 106.925C395.696 106.65 395.58 106.425 395.353 106.25C395.126 106.07 394.775 105.933 394.302 105.838L392.413 105.462C391.347 105.249 390.554 104.879 390.033 104.354C389.517 103.828 389.259 103.158 389.259 102.344C389.259 101.643 389.449 101.039 389.827 100.533C390.211 100.026 390.748 99.6354 391.44 99.3608C392.136 99.0862 392.95 98.9489 393.883 98.9489C395.261 98.9489 396.345 99.2401 397.136 99.8224C397.931 100.405 398.395 101.198 398.528 102.202ZM407.677 105.355V99.0909H410.703V110H407.798V108.018H407.684C407.438 108.658 407.029 109.171 406.456 109.56C405.887 109.948 405.194 110.142 404.375 110.142C403.646 110.142 403.004 109.976 402.45 109.645C401.896 109.313 401.463 108.842 401.15 108.232C400.842 107.621 400.686 106.889 400.682 106.037V99.0909H403.707V105.497C403.712 106.141 403.885 106.65 404.226 107.024C404.566 107.398 405.023 107.585 405.596 107.585C405.961 107.585 406.302 107.502 406.619 107.337C406.936 107.166 407.192 106.915 407.386 106.584C407.585 106.252 407.682 105.843 407.677 105.355ZM413.123 110V99.0909H416.006V101.016H416.134C416.362 100.376 416.74 99.8722 417.271 99.5028C417.801 99.1335 418.435 98.9489 419.174 98.9489C419.922 98.9489 420.559 99.1359 421.085 99.5099C421.61 99.8793 421.961 100.381 422.136 101.016H422.249C422.472 100.391 422.874 99.8911 423.457 99.517C424.044 99.1383 424.737 98.9489 425.538 98.9489C426.556 98.9489 427.382 99.2732 428.016 99.9219C428.656 100.566 428.975 101.48 428.975 102.663V110H425.957V103.26C425.957 102.654 425.796 102.199 425.474 101.896C425.152 101.593 424.749 101.442 424.266 101.442C423.717 101.442 423.289 101.617 422.981 101.967C422.673 102.313 422.519 102.77 422.519 103.338V110H419.586V103.196C419.586 102.661 419.432 102.235 419.124 101.918C418.821 101.6 418.421 101.442 417.924 101.442C417.588 101.442 417.285 101.527 417.015 101.697C416.75 101.863 416.539 102.098 416.383 102.401C416.227 102.699 416.148 103.049 416.148 103.452V110H413.123ZM436.337 110.213C435.215 110.213 434.249 109.986 433.439 109.531C432.634 109.072 432.014 108.423 431.578 107.585C431.143 106.742 430.925 105.746 430.925 104.595C430.925 103.473 431.143 102.488 431.578 101.641C432.014 100.793 432.627 100.133 433.418 99.6591C434.213 99.1856 435.146 98.9489 436.216 98.9489C436.936 98.9489 437.606 99.0649 438.226 99.2969C438.851 99.5241 439.395 99.8674 439.859 100.327C440.328 100.786 440.693 101.364 440.953 102.06C441.214 102.751 441.344 103.561 441.344 104.489V105.32H432.132V103.445H438.496C438.496 103.009 438.401 102.623 438.212 102.287C438.022 101.951 437.76 101.688 437.423 101.499C437.092 101.304 436.706 101.207 436.266 101.207C435.806 101.207 435.399 101.314 435.044 101.527C434.694 101.735 434.419 102.017 434.22 102.372C434.021 102.723 433.92 103.113 433.915 103.544V105.327C433.915 105.866 434.014 106.333 434.213 106.726C434.417 107.119 434.703 107.422 435.072 107.635C435.442 107.848 435.88 107.955 436.386 107.955C436.723 107.955 437.03 107.907 437.31 107.812C437.589 107.718 437.828 107.576 438.027 107.386C438.226 107.197 438.377 106.965 438.482 106.69L441.28 106.875C441.138 107.547 440.847 108.134 440.406 108.636C439.971 109.134 439.407 109.522 438.716 109.801C438.029 110.076 437.236 110.213 436.337 110.213ZM443.318 110V99.0909H446.251V100.994H446.365C446.564 100.317 446.898 99.8059 447.367 99.4602C447.835 99.1098 448.375 98.9347 448.986 98.9347C449.137 98.9347 449.301 98.9441 449.476 98.9631C449.651 98.982 449.805 99.008 449.938 99.0412V101.726C449.795 101.683 449.599 101.645 449.348 101.612C449.097 101.579 448.867 101.562 448.659 101.562C448.214 101.562 447.816 101.66 447.466 101.854C447.12 102.043 446.846 102.308 446.642 102.649C446.443 102.99 446.344 103.383 446.344 103.828V110H443.318Z" fill="black"/>
<rect x="552.5" y="75.5" width="163" height="54" rx="14.5" fill="#CCD2D7" stroke="black"/>
<path d="M593.098 100.547H589.987C589.93 100.144 589.814 99.7869 589.639 99.4744C589.464 99.1572 589.239 98.8873 588.964 98.6648C588.69 98.4422 588.373 98.2718 588.013 98.1534C587.658 98.035 587.272 97.9759 586.855 97.9759C586.102 97.9759 585.446 98.1629 584.888 98.5369C584.329 98.9062 583.896 99.446 583.588 100.156C583.28 100.862 583.126 101.719 583.126 102.727C583.126 103.764 583.28 104.635 583.588 105.341C583.901 106.046 584.336 106.579 584.895 106.939C585.454 107.299 586.1 107.479 586.834 107.479C587.246 107.479 587.627 107.424 587.977 107.315C588.332 107.206 588.647 107.048 588.922 106.839C589.196 106.626 589.424 106.368 589.604 106.065C589.788 105.762 589.916 105.417 589.987 105.028L593.098 105.043C593.018 105.71 592.816 106.354 592.494 106.974C592.177 107.59 591.749 108.142 591.209 108.629C590.674 109.112 590.035 109.496 589.291 109.78C588.553 110.059 587.717 110.199 586.784 110.199C585.487 110.199 584.327 109.905 583.304 109.318C582.286 108.731 581.481 107.881 580.889 106.768C580.302 105.656 580.009 104.309 580.009 102.727C580.009 101.141 580.307 99.7917 580.903 98.679C581.5 97.5663 582.31 96.7187 583.332 96.1364C584.355 95.5492 585.506 95.2557 586.784 95.2557C587.627 95.2557 588.408 95.3741 589.128 95.6108C589.852 95.8475 590.494 96.1932 591.053 96.6477C591.611 97.0975 592.066 97.6491 592.416 98.3026C592.771 98.956 592.999 99.7041 593.098 100.547ZM598.272 95.4545V110H595.246V95.4545H598.272ZM600.696 110V99.0909H603.721V110H600.696ZM602.216 97.6847C601.766 97.6847 601.38 97.5355 601.058 97.2372C600.741 96.9342 600.582 96.572 600.582 96.1506C600.582 95.7339 600.741 95.3764 601.058 95.0781C601.38 94.7751 601.766 94.6236 602.216 94.6236C602.665 94.6236 603.049 94.7751 603.366 95.0781C603.688 95.3764 603.849 95.7339 603.849 96.1506C603.849 96.572 603.688 96.9342 603.366 97.2372C603.049 97.5355 602.665 97.6847 602.216 97.6847ZM611.074 110.213C609.956 110.213 608.995 109.976 608.19 109.503C607.39 109.025 606.775 108.362 606.344 107.514C605.918 106.667 605.705 105.691 605.705 104.588C605.705 103.471 605.92 102.491 606.351 101.648C606.786 100.8 607.404 100.14 608.205 99.6662C609.005 99.188 609.956 98.9489 611.06 98.9489C612.011 98.9489 612.845 99.1217 613.56 99.4673C614.275 99.813 614.84 100.298 615.257 100.923C615.674 101.548 615.903 102.282 615.946 103.125H613.091C613.01 102.58 612.797 102.143 612.452 101.811C612.111 101.475 611.663 101.307 611.109 101.307C610.641 101.307 610.231 101.435 609.881 101.69C609.535 101.941 609.265 102.308 609.071 102.791C608.877 103.274 608.78 103.859 608.78 104.545C608.78 105.241 608.875 105.833 609.064 106.321C609.258 106.809 609.53 107.18 609.881 107.436C610.231 107.692 610.641 107.82 611.109 107.82C611.455 107.82 611.765 107.749 612.04 107.607C612.319 107.464 612.549 107.259 612.729 106.989C612.913 106.714 613.034 106.385 613.091 106.001H615.946C615.899 106.835 615.671 107.569 615.264 108.203C614.862 108.833 614.305 109.325 613.595 109.68C612.885 110.036 612.045 110.213 611.074 110.213ZM620.625 106.861L620.632 103.232H621.072L624.566 99.0909H628.039L623.345 104.574H622.627L620.625 106.861ZM617.883 110V95.4545H620.909V110H617.883ZM624.701 110L621.491 105.249L623.508 103.111L628.245 110H624.701ZM632.549 103.693V110H629.524V95.4545H632.464V101.016H632.592C632.838 100.372 633.236 99.8674 633.785 99.5028C634.334 99.1335 635.023 98.9489 635.852 98.9489C636.609 98.9489 637.27 99.1146 637.833 99.446C638.402 99.7727 638.842 100.244 639.154 100.859C639.472 101.47 639.628 102.202 639.623 103.054V110H636.598V103.594C636.602 102.921 636.432 102.398 636.086 102.024C635.745 101.65 635.267 101.463 634.652 101.463C634.24 101.463 633.875 101.551 633.558 101.726C633.245 101.901 632.999 102.157 632.819 102.493C632.644 102.824 632.554 103.224 632.549 103.693ZM646.933 110.213C645.83 110.213 644.876 109.979 644.071 109.51C643.271 109.036 642.653 108.378 642.217 107.536C641.782 106.688 641.564 105.705 641.564 104.588C641.564 103.461 641.782 102.476 642.217 101.634C642.653 100.786 643.271 100.128 644.071 99.6591C644.876 99.1856 645.83 98.9489 646.933 98.9489C648.036 98.9489 648.988 99.1856 649.788 99.6591C650.593 100.128 651.214 100.786 651.649 101.634C652.085 102.476 652.303 103.461 652.303 104.588C652.303 105.705 652.085 106.688 651.649 107.536C651.214 108.378 650.593 109.036 649.788 109.51C648.988 109.979 648.036 110.213 646.933 110.213ZM646.947 107.869C647.449 107.869 647.868 107.727 648.205 107.443C648.541 107.154 648.794 106.761 648.964 106.264C649.14 105.767 649.227 105.201 649.227 104.567C649.227 103.932 649.14 103.366 648.964 102.869C648.794 102.372 648.541 101.979 648.205 101.69C647.868 101.402 647.449 101.257 646.947 101.257C646.441 101.257 646.015 101.402 645.669 101.69C645.328 101.979 645.07 102.372 644.895 102.869C644.724 103.366 644.639 103.932 644.639 104.567C644.639 105.201 644.724 105.767 644.895 106.264C645.07 106.761 645.328 107.154 645.669 107.443C646.015 107.727 646.441 107.869 646.947 107.869ZM661.266 105.355V99.0909H664.291V110H661.386V108.018H661.273C661.027 108.658 660.617 109.171 660.044 109.56C659.476 109.948 658.782 110.142 657.963 110.142C657.234 110.142 656.592 109.976 656.038 109.645C655.484 109.313 655.051 108.842 654.739 108.232C654.431 107.621 654.275 106.889 654.27 106.037V99.0909H657.295V105.497C657.3 106.141 657.473 106.65 657.814 107.024C658.155 107.398 658.612 107.585 659.185 107.585C659.549 107.585 659.89 107.502 660.207 107.337C660.525 107.166 660.78 106.915 660.974 106.584C661.173 106.252 661.27 105.843 661.266 105.355ZM675.788 102.202L673.018 102.372C672.971 102.135 672.869 101.922 672.713 101.733C672.556 101.539 672.35 101.385 672.095 101.271C671.844 101.153 671.543 101.094 671.193 101.094C670.724 101.094 670.329 101.193 670.007 101.392C669.685 101.586 669.524 101.847 669.524 102.173C669.524 102.434 669.628 102.654 669.836 102.834C670.045 103.014 670.402 103.158 670.909 103.267L672.883 103.665C673.944 103.883 674.734 104.233 675.255 104.716C675.776 105.199 676.037 105.833 676.037 106.619C676.037 107.334 675.826 107.962 675.404 108.501C674.988 109.041 674.415 109.463 673.686 109.766C672.961 110.064 672.126 110.213 671.179 110.213C669.734 110.213 668.584 109.912 667.727 109.311C666.875 108.705 666.375 107.881 666.228 106.839L669.204 106.683C669.294 107.124 669.512 107.46 669.858 107.692C670.203 107.919 670.646 108.033 671.186 108.033C671.716 108.033 672.142 107.931 672.464 107.727C672.791 107.519 672.957 107.251 672.961 106.925C672.957 106.65 672.841 106.425 672.613 106.25C672.386 106.07 672.036 105.933 671.562 105.838L669.673 105.462C668.608 105.249 667.815 104.879 667.294 104.354C666.778 103.828 666.52 103.158 666.52 102.344C666.52 101.643 666.709 101.039 667.088 100.533C667.471 100.026 668.009 99.6354 668.7 99.3608C669.396 99.0862 670.21 98.9489 671.143 98.9489C672.521 98.9489 673.605 99.2401 674.396 99.8224C675.191 100.405 675.655 101.198 675.788 102.202ZM682.913 110.213C681.791 110.213 680.825 109.986 680.016 109.531C679.211 109.072 678.59 108.423 678.155 107.585C677.719 106.742 677.501 105.746 677.501 104.595C677.501 103.473 677.719 102.488 678.155 101.641C678.59 100.793 679.204 100.133 679.994 99.6591C680.79 99.1856 681.723 98.9489 682.793 98.9489C683.512 98.9489 684.182 99.0649 684.803 99.2969C685.428 99.5241 685.972 99.8674 686.436 100.327C686.905 100.786 687.269 101.364 687.53 102.06C687.79 102.751 687.92 103.561 687.92 104.489V105.32H678.709V103.445H685.072C685.072 103.009 684.978 102.623 684.788 102.287C684.599 101.951 684.336 101.688 684 101.499C683.669 101.304 683.283 101.207 682.842 101.207C682.383 101.207 681.976 101.314 681.621 101.527C681.27 101.735 680.996 102.017 680.797 102.372C680.598 102.723 680.496 103.113 680.491 103.544V105.327C680.491 105.866 680.591 106.333 680.79 106.726C680.993 107.119 681.28 107.422 681.649 107.635C682.018 107.848 682.456 107.955 682.963 107.955C683.299 107.955 683.607 107.907 683.886 107.812C684.166 107.718 684.405 107.576 684.604 107.386C684.803 107.197 684.954 106.965 685.058 106.69L687.857 106.875C687.714 107.547 687.423 108.134 686.983 108.636C686.547 109.134 685.984 109.522 685.293 109.801C684.606 110.076 683.813 110.213 682.913 110.213Z" fill="black"/>
<rect x="44.5" y="75.5" width="106" height="54" rx="14.5" fill="#CCD2D7" stroke="black"/>
<path d="M80.1548 99.6378C80.098 99.0649 79.8542 98.6198 79.4233 98.3026C78.9924 97.9853 78.4077 97.8267 77.669 97.8267C77.1671 97.8267 76.7434 97.8977 76.3977 98.0398C76.0521 98.1771 75.7869 98.3688 75.6023 98.6151C75.4223 98.8613 75.3324 99.1406 75.3324 99.4531C75.3229 99.7135 75.3774 99.9408 75.4957 100.135C75.6188 100.329 75.7869 100.497 76 100.639C76.2131 100.777 76.4593 100.897 76.7386 101.001C77.018 101.101 77.3163 101.186 77.6335 101.257L78.9403 101.57C79.5748 101.712 80.1572 101.901 80.6875 102.138C81.2178 102.375 81.6771 102.666 82.0653 103.011C82.4536 103.357 82.7543 103.764 82.9673 104.233C83.1851 104.702 83.2964 105.239 83.3011 105.845C83.2964 106.735 83.0691 107.507 82.6193 108.161C82.1742 108.809 81.5303 109.313 80.6875 109.673C79.8494 110.028 78.8385 110.206 77.6548 110.206C76.4806 110.206 75.4579 110.026 74.5866 109.666C73.7202 109.306 73.0431 108.774 72.5554 108.068C72.0724 107.358 71.8191 106.48 71.7955 105.433H74.7713C74.8045 105.921 74.9441 106.328 75.1903 106.655C75.4413 106.977 75.7751 107.221 76.1918 107.386C76.6132 107.547 77.089 107.628 77.6193 107.628C78.1402 107.628 78.5923 107.552 78.9759 107.401C79.3641 107.249 79.6648 107.038 79.8778 106.768C80.0909 106.499 80.1974 106.188 80.1974 105.838C80.1974 105.511 80.1004 105.237 79.9062 105.014C79.7169 104.792 79.4375 104.602 79.0682 104.446C78.7036 104.29 78.2562 104.148 77.7259 104.02L76.142 103.622C74.9157 103.324 73.9474 102.857 73.2372 102.223C72.527 101.589 72.1742 100.734 72.179 99.6591C72.1742 98.7784 72.4086 98.009 72.8821 97.3509C73.3603 96.6927 74.0161 96.179 74.8494 95.8097C75.6828 95.4403 76.6297 95.2557 77.6903 95.2557C78.7699 95.2557 79.7121 95.4403 80.517 95.8097C81.3267 96.179 81.9564 96.6927 82.4062 97.3509C82.8561 98.009 83.0881 98.7713 83.1023 99.6378H80.1548ZM90.5259 110H85.3697V95.4545H90.5685C92.0316 95.4545 93.2911 95.7457 94.3469 96.3281C95.4028 96.9058 96.2148 97.7367 96.783 98.821C97.3559 99.9053 97.6424 101.203 97.6424 102.713C97.6424 104.228 97.3559 105.53 96.783 106.619C96.2148 107.708 95.3981 108.544 94.3327 109.126C93.2721 109.709 92.0032 110 90.5259 110ZM88.445 107.365H90.3981C91.3072 107.365 92.0719 107.204 92.6921 106.882C93.3171 106.555 93.7859 106.051 94.0984 105.369C94.4156 104.683 94.5742 103.797 94.5742 102.713C94.5742 101.638 94.4156 100.76 94.0984 100.078C93.7859 99.3963 93.3195 98.8944 92.6992 98.5724C92.079 98.2505 91.3143 98.0895 90.4052 98.0895H88.445V107.365ZM99.9205 110V95.4545H102.996V101.868H103.188L108.422 95.4545H112.108L106.71 101.967L112.172 110H108.493L104.509 104.02L102.996 105.866V110H99.9205ZM122.729 102.202L119.96 102.372C119.912 102.135 119.81 101.922 119.654 101.733C119.498 101.539 119.292 101.385 119.036 101.271C118.785 101.153 118.485 101.094 118.134 101.094C117.665 101.094 117.27 101.193 116.948 101.392C116.626 101.586 116.465 101.847 116.465 102.173C116.465 102.434 116.569 102.654 116.778 102.834C116.986 103.014 117.344 103.158 117.85 103.267L119.825 103.665C120.885 103.883 121.676 104.233 122.197 104.716C122.718 105.199 122.978 105.833 122.978 106.619C122.978 107.334 122.767 107.962 122.346 108.501C121.929 109.041 121.356 109.463 120.627 109.766C119.903 110.064 119.067 110.213 118.12 110.213C116.676 110.213 115.525 109.912 114.668 109.311C113.816 108.705 113.317 107.881 113.17 106.839L116.146 106.683C116.236 107.124 116.453 107.46 116.799 107.692C117.145 107.919 117.587 108.033 118.127 108.033C118.657 108.033 119.084 107.931 119.406 107.727C119.732 107.519 119.898 107.251 119.903 106.925C119.898 106.65 119.782 106.425 119.555 106.25C119.327 106.07 118.977 105.933 118.504 105.838L116.614 105.462C115.549 105.249 114.756 104.879 114.235 104.354C113.719 103.828 113.461 103.158 113.461 102.344C113.461 101.643 113.65 101.039 114.029 100.533C114.413 100.026 114.95 99.6354 115.641 99.3608C116.337 99.0862 117.152 98.9489 118.085 98.9489C119.462 98.9489 120.547 99.2401 121.337 99.8224C122.133 100.405 122.597 101.198 122.729 102.202Z" fill="black"/>
<path d="M250 103L245 100.113V105.887L250 103ZM151 103.5H245.5V102.5H151V103.5Z" fill="#DFDFDF"/>
<path d="M552 101L547 98.1132V103.887L552 101ZM476 101.5H547.5V100.5H476V101.5Z" fill="#DFDFDF"/>
<path d="M48.5384 50L44.3764 35.4545H47.7358L50.1435 45.5611H50.2642L52.9205 35.4545H55.7969L58.446 45.5824H58.5739L60.9815 35.4545H64.3409L60.179 50H57.1818L54.4119 40.4901H54.2983L51.5355 50H48.5384ZM65.2464 50V39.0909H68.1797V40.9943H68.2933C68.4922 40.3172 68.826 39.8059 69.2947 39.4602C69.7635 39.1098 70.3033 38.9347 70.9141 38.9347C71.0656 38.9347 71.2289 38.9441 71.4041 38.9631C71.5793 38.982 71.7332 39.008 71.8658 39.0412V41.7259C71.7237 41.6832 71.5272 41.6454 71.2763 41.6122C71.0253 41.5791 70.7957 41.5625 70.5874 41.5625C70.1423 41.5625 69.7446 41.6596 69.3942 41.8537C69.0485 42.0431 68.7739 42.3082 68.5703 42.6491C68.3714 42.9901 68.272 43.383 68.272 43.8281V50H65.2464ZM73.43 50V39.0909H76.4556V50H73.43ZM74.9499 37.6847C74.5001 37.6847 74.1142 37.5355 73.7923 37.2372C73.475 36.9342 73.3164 36.572 73.3164 36.1506C73.3164 35.7339 73.475 35.3764 73.7923 35.0781C74.1142 34.7751 74.5001 34.6236 74.9499 34.6236C75.3997 34.6236 75.7833 34.7751 76.1005 35.0781C76.4225 35.3764 76.5835 35.7339 76.5835 36.1506C76.5835 36.572 76.4225 36.9342 76.1005 37.2372C75.7833 37.5355 75.3997 37.6847 74.9499 37.6847ZM84.6818 39.0909V41.3636H78.1122V39.0909H84.6818ZM79.6037 36.4773H82.6293V46.6477C82.6293 46.9271 82.6719 47.1449 82.7571 47.3011C82.8423 47.4527 82.9607 47.5592 83.1122 47.6207C83.2685 47.6823 83.4484 47.7131 83.652 47.7131C83.794 47.7131 83.9361 47.7012 84.0781 47.6776C84.2202 47.6491 84.3291 47.6278 84.4048 47.6136L84.8807 49.8651C84.7292 49.9124 84.5161 49.9669 84.2415 50.0284C83.9669 50.0947 83.633 50.1349 83.2401 50.1491C82.5109 50.1776 81.8717 50.0805 81.3224 49.858C80.7779 49.6354 80.3542 49.2898 80.0511 48.821C79.7481 48.3523 79.599 47.7604 79.6037 47.0455V36.4773ZM91.5071 50.2131C90.3849 50.2131 89.419 49.9858 88.6094 49.5312C87.8045 49.072 87.1842 48.4233 86.7486 47.5852C86.313 46.7424 86.0952 45.7457 86.0952 44.5952C86.0952 43.473 86.313 42.4882 86.7486 41.6406C87.1842 40.7931 87.7973 40.1326 88.5881 39.6591C89.3835 39.1856 90.3163 38.9489 91.3864 38.9489C92.1061 38.9489 92.776 39.0649 93.3963 39.2969C94.0213 39.5241 94.5658 39.8674 95.0298 40.3267C95.4986 40.786 95.8632 41.3636 96.1236 42.0597C96.384 42.7509 96.5142 43.5606 96.5142 44.4886V45.3196H87.3026V43.4446H93.6662C93.6662 43.009 93.5715 42.6231 93.3821 42.2869C93.1927 41.9508 92.9299 41.688 92.5938 41.4986C92.2623 41.3045 91.8764 41.2074 91.4361 41.2074C90.9768 41.2074 90.5696 41.3139 90.2145 41.527C89.8641 41.7353 89.5895 42.017 89.3906 42.3722C89.1918 42.7225 89.09 43.1132 89.0852 43.544V45.3267C89.0852 45.8665 89.1847 46.3329 89.3835 46.7259C89.5871 47.1188 89.8736 47.4219 90.2429 47.6349C90.6122 47.848 91.0502 47.9545 91.5568 47.9545C91.893 47.9545 92.2008 47.9072 92.4801 47.8125C92.7595 47.7178 92.9986 47.5758 93.1974 47.3864C93.3963 47.197 93.5478 46.965 93.652 46.6903L96.4503 46.875C96.3082 47.5473 96.017 48.1345 95.5767 48.6364C95.1411 49.1335 94.5777 49.5218 93.8864 49.8011C93.1998 50.0758 92.4067 50.2131 91.5071 50.2131ZM103.118 54.0909V39.0909H106.1V40.9233H106.235C106.368 40.6297 106.56 40.3314 106.811 40.0284C107.066 39.7206 107.398 39.465 107.805 39.2614C108.217 39.053 108.728 38.9489 109.339 38.9489C110.135 38.9489 110.868 39.1572 111.541 39.5739C112.213 39.9858 112.751 40.6084 113.153 41.4418C113.556 42.2704 113.757 43.3097 113.757 44.5597C113.757 45.7765 113.56 46.804 113.167 47.642C112.779 48.4754 112.249 49.1075 111.576 49.5384C110.909 49.9645 110.161 50.1776 109.332 50.1776C108.745 50.1776 108.245 50.0805 107.833 49.8864C107.426 49.6922 107.092 49.4484 106.832 49.1548C106.572 48.8565 106.373 48.5559 106.235 48.2528H106.143V54.0909H103.118ZM106.079 44.5455C106.079 45.1941 106.169 45.7599 106.349 46.2429C106.529 46.7259 106.789 47.1023 107.13 47.3722C107.471 47.6373 107.886 47.7699 108.373 47.7699C108.866 47.7699 109.282 47.6349 109.623 47.3651C109.964 47.0904 110.222 46.7116 110.397 46.2287C110.577 45.741 110.667 45.1799 110.667 44.5455C110.667 43.9157 110.58 43.3617 110.404 42.8835C110.229 42.4053 109.971 42.0312 109.63 41.7614C109.289 41.4915 108.87 41.3565 108.373 41.3565C107.881 41.3565 107.464 41.4867 107.123 41.7472C106.787 42.0076 106.529 42.3769 106.349 42.8551C106.169 43.3333 106.079 43.8968 106.079 44.5455ZM118.885 50.206C118.189 50.206 117.568 50.0852 117.024 49.8438C116.479 49.5975 116.048 49.2353 115.731 48.7571C115.419 48.2741 115.262 47.6728 115.262 46.9531C115.262 46.3471 115.374 45.8381 115.596 45.4261C115.819 45.0142 116.122 44.6828 116.505 44.4318C116.889 44.1809 117.324 43.9915 117.812 43.8636C118.305 43.7358 118.821 43.6458 119.36 43.5938C119.995 43.5275 120.506 43.4659 120.895 43.4091C121.283 43.3475 121.565 43.2576 121.74 43.1392C121.915 43.0208 122.002 42.8456 122.002 42.6136V42.571C122.002 42.1212 121.86 41.7732 121.576 41.527C121.297 41.2808 120.899 41.1577 120.383 41.1577C119.839 41.1577 119.405 41.2784 119.083 41.5199C118.761 41.7566 118.548 42.0549 118.444 42.4148L115.646 42.1875C115.788 41.5246 116.067 40.9517 116.484 40.4688C116.901 39.9811 117.438 39.607 118.096 39.3466C118.759 39.0814 119.526 38.9489 120.397 38.9489C121.003 38.9489 121.583 39.0199 122.137 39.1619C122.696 39.304 123.191 39.5241 123.622 39.8224C124.057 40.1207 124.401 40.5043 124.652 40.973C124.903 41.437 125.028 41.9934 125.028 42.642V50H122.159V48.4872H122.074C121.898 48.8281 121.664 49.1288 121.37 49.3892C121.077 49.6449 120.724 49.8461 120.312 49.9929C119.9 50.1349 119.424 50.206 118.885 50.206ZM119.751 48.1179C120.196 48.1179 120.589 48.0303 120.93 47.8551C121.271 47.6752 121.538 47.4337 121.733 47.1307C121.927 46.8277 122.024 46.4844 122.024 46.1009V44.9432C121.929 45.0047 121.799 45.0616 121.633 45.1136C121.472 45.161 121.29 45.206 121.086 45.2486C120.883 45.2865 120.679 45.322 120.475 45.3551C120.272 45.3835 120.087 45.4096 119.922 45.4332C119.566 45.4853 119.256 45.5682 118.991 45.6818C118.726 45.7955 118.52 45.9493 118.373 46.1435C118.226 46.3329 118.153 46.5696 118.153 46.8537C118.153 47.2656 118.302 47.5805 118.6 47.7983C118.904 48.0114 119.287 48.1179 119.751 48.1179ZM133.178 39.0909V41.3636H126.608V39.0909H133.178ZM128.1 36.4773H131.125V46.6477C131.125 46.9271 131.168 47.1449 131.253 47.3011C131.338 47.4527 131.457 47.5592 131.608 47.6207C131.765 47.6823 131.944 47.7131 132.148 47.7131C132.29 47.7131 132.432 47.7012 132.574 47.6776C132.716 47.6491 132.825 47.6278 132.901 47.6136L133.377 49.8651C133.225 49.9124 133.012 49.9669 132.738 50.0284C132.463 50.0947 132.129 50.1349 131.736 50.1491C131.007 50.1776 130.368 50.0805 129.819 49.858C129.274 49.6354 128.85 49.2898 128.547 48.821C128.244 48.3523 128.095 47.7604 128.1 47.0455V36.4773ZM138.409 43.6932V50H135.383V35.4545H138.324V41.0156H138.451C138.698 40.3717 139.095 39.8674 139.645 39.5028C140.194 39.1335 140.883 38.9489 141.711 38.9489C142.469 38.9489 143.129 39.1146 143.693 39.446C144.261 39.7727 144.701 40.2438 145.014 40.8594C145.331 41.4702 145.487 42.2017 145.483 43.054V50H142.457V43.5938C142.462 42.9214 142.291 42.3982 141.946 42.0241C141.605 41.6501 141.127 41.4631 140.511 41.4631C140.099 41.4631 139.734 41.5507 139.417 41.7259C139.105 41.901 138.859 42.1567 138.679 42.4929C138.503 42.8243 138.413 43.2244 138.409 43.6932Z" fill="#D2D4E1"/>
<rect x="44.5" y="244.5" width="190" height="54" rx="14.5" fill="#CCD2D7" stroke="black"/>
<path d="M71.1548 268.638C71.098 268.065 70.8542 267.62 70.4233 267.303C69.9924 266.985 69.4077 266.827 68.669 266.827C68.1671 266.827 67.7434 266.898 67.3977 267.04C67.0521 267.177 66.7869 267.369 66.6023 267.615C66.4223 267.861 66.3324 268.141 66.3324 268.453C66.3229 268.714 66.3774 268.941 66.4957 269.135C66.6188 269.329 66.7869 269.497 67 269.639C67.2131 269.777 67.4593 269.897 67.7386 270.001C68.018 270.101 68.3163 270.186 68.6335 270.257L69.9403 270.57C70.5748 270.712 71.1572 270.901 71.6875 271.138C72.2178 271.375 72.6771 271.666 73.0653 272.011C73.4536 272.357 73.7543 272.764 73.9673 273.233C74.1851 273.702 74.2964 274.239 74.3011 274.845C74.2964 275.735 74.0691 276.507 73.6193 277.161C73.1742 277.809 72.5303 278.313 71.6875 278.673C70.8494 279.028 69.8385 279.206 68.6548 279.206C67.4806 279.206 66.4579 279.026 65.5866 278.666C64.7202 278.306 64.0431 277.774 63.5554 277.068C63.0724 276.358 62.8191 275.48 62.7955 274.433H65.7713C65.8045 274.921 65.9441 275.328 66.1903 275.655C66.4413 275.977 66.7751 276.221 67.1918 276.386C67.6132 276.547 68.089 276.628 68.6193 276.628C69.1402 276.628 69.5923 276.552 69.9759 276.401C70.3641 276.249 70.6648 276.038 70.8778 275.768C71.0909 275.499 71.1974 275.188 71.1974 274.838C71.1974 274.511 71.1004 274.237 70.9062 274.014C70.7169 273.792 70.4375 273.602 70.0682 273.446C69.7036 273.29 69.2562 273.148 68.7259 273.02L67.142 272.622C65.9157 272.324 64.9474 271.857 64.2372 271.223C63.527 270.589 63.1742 269.734 63.179 268.659C63.1742 267.778 63.4086 267.009 63.8821 266.351C64.3603 265.693 65.0161 265.179 65.8494 264.81C66.6828 264.44 67.6297 264.256 68.6903 264.256C69.7699 264.256 70.7121 264.44 71.517 264.81C72.3267 265.179 72.9564 265.693 73.4062 266.351C73.8561 267.009 74.0881 267.771 74.1023 268.638H71.1548ZM81.2844 279.213C80.1623 279.213 79.1964 278.986 78.3867 278.531C77.5818 278.072 76.9615 277.423 76.5259 276.585C76.0903 275.742 75.8725 274.746 75.8725 273.595C75.8725 272.473 76.0903 271.488 76.5259 270.641C76.9615 269.793 77.5747 269.133 78.3654 268.659C79.1609 268.186 80.0936 267.949 81.1637 267.949C81.8834 267.949 82.5534 268.065 83.1737 268.297C83.7987 268.524 84.3432 268.867 84.8072 269.327C85.2759 269.786 85.6405 270.364 85.9009 271.06C86.1613 271.751 86.2915 272.561 86.2915 273.489V274.32H77.0799V272.445H83.4435C83.4435 272.009 83.3488 271.623 83.1594 271.287C82.9701 270.951 82.7073 270.688 82.3711 270.499C82.0397 270.304 81.6538 270.207 81.2134 270.207C80.7541 270.207 80.3469 270.314 79.9918 270.527C79.6415 270.735 79.3668 271.017 79.168 271.372C78.9691 271.723 78.8673 272.113 78.8626 272.544V274.327C78.8626 274.866 78.962 275.333 79.1609 275.726C79.3645 276.119 79.6509 276.422 80.0202 276.635C80.3896 276.848 80.8275 276.955 81.3342 276.955C81.6703 276.955 81.9781 276.907 82.2575 276.812C82.5368 276.718 82.7759 276.576 82.9748 276.386C83.1737 276.197 83.3252 275.965 83.4293 275.69L86.2276 275.875C86.0856 276.547 85.7944 277.134 85.354 277.636C84.9184 278.134 84.355 278.522 83.6637 278.801C82.9772 279.076 82.1841 279.213 81.2844 279.213ZM91.2915 272.693V279H88.266V268.091H91.1495V270.016H91.2773C91.5188 269.381 91.9237 268.879 92.4918 268.51C93.06 268.136 93.7489 267.949 94.5586 267.949C95.3162 267.949 95.9767 268.115 96.5401 268.446C97.1036 268.777 97.5415 269.251 97.854 269.866C98.1665 270.477 98.3228 271.206 98.3228 272.054V279H95.2972V272.594C95.302 271.926 95.1315 271.405 94.7859 271.031C94.4402 270.652 93.9644 270.463 93.3583 270.463C92.9511 270.463 92.5913 270.551 92.2788 270.726C91.971 270.901 91.7295 271.157 91.5543 271.493C91.3839 271.824 91.2963 272.224 91.2915 272.693ZM106.51 268.091V270.364H99.9403V268.091H106.51ZM101.432 265.477H104.457V275.648C104.457 275.927 104.5 276.145 104.585 276.301C104.67 276.453 104.789 276.559 104.94 276.621C105.097 276.682 105.277 276.713 105.48 276.713C105.622 276.713 105.764 276.701 105.906 276.678C106.048 276.649 106.157 276.628 106.233 276.614L106.709 278.865C106.557 278.912 106.344 278.967 106.07 279.028C105.795 279.095 105.461 279.135 105.068 279.149C104.339 279.178 103.7 279.08 103.151 278.858C102.606 278.635 102.182 278.29 101.879 277.821C101.576 277.352 101.427 276.76 101.432 276.045V265.477ZM108.481 279V268.091H111.414V269.994H111.528C111.727 269.317 112.06 268.806 112.529 268.46C112.998 268.11 113.538 267.935 114.148 267.935C114.3 267.935 114.463 267.944 114.638 267.963C114.814 267.982 114.968 268.008 115.1 268.041V270.726C114.958 270.683 114.762 270.645 114.511 270.612C114.26 270.579 114.03 270.562 113.822 270.562C113.377 270.562 112.979 270.66 112.629 270.854C112.283 271.043 112.008 271.308 111.805 271.649C111.606 271.99 111.506 272.383 111.506 272.828V279H108.481ZM118.864 283.091C118.481 283.091 118.121 283.06 117.785 282.999C117.453 282.942 117.179 282.868 116.961 282.778L117.643 280.52C117.998 280.629 118.317 280.688 118.602 280.697C118.89 280.707 119.139 280.641 119.347 280.499C119.56 280.357 119.733 280.115 119.866 279.774L120.043 279.312L116.13 268.091H119.312L121.57 276.102H121.684L123.964 268.091H127.167L122.927 280.179C122.723 280.766 122.446 281.277 122.096 281.713C121.75 282.153 121.312 282.492 120.782 282.729C120.252 282.97 119.612 283.091 118.864 283.091ZM133.401 279V264.455H136.426V269.923H136.519C136.651 269.63 136.843 269.331 137.094 269.028C137.35 268.721 137.681 268.465 138.088 268.261C138.5 268.053 139.012 267.949 139.623 267.949C140.418 267.949 141.152 268.157 141.824 268.574C142.497 268.986 143.034 269.608 143.436 270.442C143.839 271.27 144.04 272.31 144.04 273.56C144.04 274.777 143.844 275.804 143.451 276.642C143.062 277.475 142.532 278.107 141.86 278.538C141.192 278.964 140.444 279.178 139.615 279.178C139.028 279.178 138.529 279.08 138.117 278.886C137.71 278.692 137.376 278.448 137.115 278.155C136.855 277.857 136.656 277.556 136.519 277.253H136.384V279H133.401ZM136.363 273.545C136.363 274.194 136.453 274.76 136.632 275.243C136.812 275.726 137.073 276.102 137.414 276.372C137.755 276.637 138.169 276.77 138.657 276.77C139.149 276.77 139.566 276.635 139.907 276.365C140.248 276.09 140.506 275.712 140.681 275.229C140.861 274.741 140.951 274.18 140.951 273.545C140.951 272.916 140.863 272.362 140.688 271.884C140.513 271.405 140.255 271.031 139.914 270.761C139.573 270.491 139.154 270.357 138.657 270.357C138.164 270.357 137.748 270.487 137.407 270.747C137.07 271.008 136.812 271.377 136.632 271.855C136.453 272.333 136.363 272.897 136.363 273.545ZM149.17 279.206C148.474 279.206 147.853 279.085 147.309 278.844C146.764 278.598 146.334 278.235 146.016 277.757C145.704 277.274 145.548 276.673 145.548 275.953C145.548 275.347 145.659 274.838 145.881 274.426C146.104 274.014 146.407 273.683 146.79 273.432C147.174 273.181 147.61 272.991 148.097 272.864C148.59 272.736 149.106 272.646 149.646 272.594C150.28 272.527 150.791 272.466 151.18 272.409C151.568 272.348 151.85 272.258 152.025 272.139C152.2 272.021 152.288 271.846 152.288 271.614V271.571C152.288 271.121 152.146 270.773 151.862 270.527C151.582 270.281 151.184 270.158 150.668 270.158C150.124 270.158 149.691 270.278 149.369 270.52C149.047 270.757 148.834 271.055 148.729 271.415L145.931 271.188C146.073 270.525 146.353 269.952 146.769 269.469C147.186 268.981 147.723 268.607 148.381 268.347C149.044 268.081 149.811 267.949 150.683 267.949C151.289 267.949 151.869 268.02 152.423 268.162C152.981 268.304 153.476 268.524 153.907 268.822C154.343 269.121 154.686 269.504 154.937 269.973C155.188 270.437 155.313 270.993 155.313 271.642V279H152.444V277.487H152.359C152.183 277.828 151.949 278.129 151.656 278.389C151.362 278.645 151.009 278.846 150.597 278.993C150.185 279.135 149.71 279.206 149.17 279.206ZM150.036 277.118C150.481 277.118 150.874 277.03 151.215 276.855C151.556 276.675 151.824 276.434 152.018 276.131C152.212 275.828 152.309 275.484 152.309 275.101V273.943C152.214 274.005 152.084 274.062 151.918 274.114C151.757 274.161 151.575 274.206 151.371 274.249C151.168 274.286 150.964 274.322 150.761 274.355C150.557 274.384 150.372 274.41 150.207 274.433C149.852 274.485 149.541 274.568 149.276 274.682C149.011 274.795 148.805 274.949 148.658 275.143C148.512 275.333 148.438 275.57 148.438 275.854C148.438 276.266 148.587 276.58 148.886 276.798C149.189 277.011 149.572 277.118 150.036 277.118ZM162.589 279.213C161.472 279.213 160.511 278.976 159.706 278.503C158.906 278.025 158.29 277.362 157.859 276.514C157.433 275.667 157.22 274.691 157.22 273.588C157.22 272.471 157.436 271.491 157.866 270.648C158.302 269.8 158.92 269.14 159.72 268.666C160.52 268.188 161.472 267.949 162.575 267.949C163.527 267.949 164.36 268.122 165.075 268.467C165.79 268.813 166.356 269.298 166.773 269.923C167.189 270.548 167.419 271.282 167.462 272.125H164.607C164.526 271.58 164.313 271.143 163.967 270.811C163.626 270.475 163.179 270.307 162.625 270.307C162.156 270.307 161.747 270.435 161.396 270.69C161.051 270.941 160.781 271.308 160.587 271.791C160.393 272.274 160.295 272.859 160.295 273.545C160.295 274.241 160.39 274.833 160.58 275.321C160.774 275.809 161.046 276.18 161.396 276.436C161.747 276.692 162.156 276.82 162.625 276.82C162.971 276.82 163.281 276.749 163.555 276.607C163.835 276.464 164.064 276.259 164.244 275.989C164.429 275.714 164.55 275.385 164.607 275.001H167.462C167.414 275.835 167.187 276.569 166.78 277.203C166.377 277.833 165.821 278.325 165.111 278.68C164.401 279.036 163.56 279.213 162.589 279.213ZM172.14 275.861L172.147 272.232H172.588L176.082 268.091H179.555L174.86 273.574H174.143L172.14 275.861ZM169.399 279V264.455H172.424V279H169.399ZM176.217 279L173.007 274.249L175.024 272.111L179.761 279H176.217ZM185.562 279.213C184.44 279.213 183.474 278.986 182.664 278.531C181.859 278.072 181.239 277.423 180.803 276.585C180.368 275.742 180.15 274.746 180.15 273.595C180.15 272.473 180.368 271.488 180.803 270.641C181.239 269.793 181.852 269.133 182.643 268.659C183.438 268.186 184.371 267.949 185.441 267.949C186.161 267.949 186.831 268.065 187.451 268.297C188.076 268.524 188.621 268.867 189.085 269.327C189.553 269.786 189.918 270.364 190.178 271.06C190.439 271.751 190.569 272.561 190.569 273.489V274.32H181.357V272.445H187.721C187.721 272.009 187.626 271.623 187.437 271.287C187.247 270.951 186.985 270.688 186.648 270.499C186.317 270.304 185.931 270.207 185.491 270.207C185.031 270.207 184.624 270.314 184.269 270.527C183.919 270.735 183.644 271.017 183.445 271.372C183.246 271.723 183.145 272.113 183.14 272.544V274.327C183.14 274.866 183.239 275.333 183.438 275.726C183.642 276.119 183.928 276.422 184.298 276.635C184.667 276.848 185.105 276.955 185.612 276.955C185.948 276.955 186.255 276.907 186.535 276.812C186.814 276.718 187.053 276.576 187.252 276.386C187.451 276.197 187.603 275.965 187.707 275.69L190.505 275.875C190.363 276.547 190.072 277.134 189.631 277.636C189.196 278.134 188.632 278.522 187.941 278.801C187.254 279.076 186.461 279.213 185.562 279.213ZM195.569 272.693V279H192.543V268.091H195.427V270.016H195.555C195.796 269.381 196.201 268.879 196.769 268.51C197.337 268.136 198.026 267.949 198.836 267.949C199.594 267.949 200.254 268.115 200.817 268.446C201.381 268.777 201.819 269.251 202.131 269.866C202.444 270.477 202.6 271.206 202.6 272.054V279H199.575V272.594C199.579 271.926 199.409 271.405 199.063 271.031C198.718 270.652 198.242 270.463 197.636 270.463C197.228 270.463 196.869 270.551 196.556 270.726C196.248 270.901 196.007 271.157 195.832 271.493C195.661 271.824 195.574 272.224 195.569 272.693ZM209.005 279.178C208.176 279.178 207.426 278.964 206.753 278.538C206.086 278.107 205.555 277.475 205.162 276.642C204.774 275.804 204.58 274.777 204.58 273.56C204.58 272.31 204.781 271.27 205.184 270.442C205.586 269.608 206.121 268.986 206.789 268.574C207.461 268.157 208.197 267.949 208.998 267.949C209.608 267.949 210.117 268.053 210.525 268.261C210.936 268.465 211.268 268.721 211.519 269.028C211.775 269.331 211.969 269.63 212.101 269.923H212.194V264.455H215.212V279H212.229V277.253H212.101C211.959 277.556 211.758 277.857 211.498 278.155C211.242 278.448 210.908 278.692 210.496 278.886C210.089 279.08 209.592 279.178 209.005 279.178ZM209.963 276.77C210.451 276.77 210.863 276.637 211.199 276.372C211.54 276.102 211.801 275.726 211.98 275.243C212.165 274.76 212.257 274.194 212.257 273.545C212.257 272.897 212.167 272.333 211.988 271.855C211.808 271.377 211.547 271.008 211.206 270.747C210.865 270.487 210.451 270.357 209.963 270.357C209.466 270.357 209.047 270.491 208.706 270.761C208.365 271.031 208.107 271.405 207.932 271.884C207.757 272.362 207.669 272.916 207.669 273.545C207.669 274.18 207.757 274.741 207.932 275.229C208.112 275.712 208.37 276.09 208.706 276.365C209.047 276.635 209.466 276.77 209.963 276.77Z" fill="black"/>
<rect x="44.5" y="325.5" width="190" height="54" rx="14.5" fill="#CCD2D7" stroke="black"/>
<path d="M71.1548 349.638C71.098 349.065 70.8542 348.62 70.4233 348.303C69.9924 347.985 69.4077 347.827 68.669 347.827C68.1671 347.827 67.7434 347.898 67.3977 348.04C67.0521 348.177 66.7869 348.369 66.6023 348.615C66.4223 348.861 66.3324 349.141 66.3324 349.453C66.3229 349.714 66.3774 349.941 66.4957 350.135C66.6188 350.329 66.7869 350.497 67 350.639C67.2131 350.777 67.4593 350.897 67.7386 351.001C68.018 351.101 68.3163 351.186 68.6335 351.257L69.9403 351.57C70.5748 351.712 71.1572 351.901 71.6875 352.138C72.2178 352.375 72.6771 352.666 73.0653 353.011C73.4536 353.357 73.7543 353.764 73.9673 354.233C74.1851 354.702 74.2964 355.239 74.3011 355.845C74.2964 356.735 74.0691 357.507 73.6193 358.161C73.1742 358.809 72.5303 359.313 71.6875 359.673C70.8494 360.028 69.8385 360.206 68.6548 360.206C67.4806 360.206 66.4579 360.026 65.5866 359.666C64.7202 359.306 64.0431 358.774 63.5554 358.068C63.0724 357.358 62.8191 356.48 62.7955 355.433H65.7713C65.8045 355.921 65.9441 356.328 66.1903 356.655C66.4413 356.977 66.7751 357.221 67.1918 357.386C67.6132 357.547 68.089 357.628 68.6193 357.628C69.1402 357.628 69.5923 357.552 69.9759 357.401C70.3641 357.249 70.6648 357.038 70.8778 356.768C71.0909 356.499 71.1974 356.188 71.1974 355.838C71.1974 355.511 71.1004 355.237 70.9062 355.014C70.7169 354.792 70.4375 354.602 70.0682 354.446C69.7036 354.29 69.2562 354.148 68.7259 354.02L67.142 353.622C65.9157 353.324 64.9474 352.857 64.2372 352.223C63.527 351.589 63.1742 350.734 63.179 349.659C63.1742 348.778 63.4086 348.009 63.8821 347.351C64.3603 346.693 65.0161 346.179 65.8494 345.81C66.6828 345.44 67.6297 345.256 68.6903 345.256C69.7699 345.256 70.7121 345.44 71.517 345.81C72.3267 346.179 72.9564 346.693 73.4062 347.351C73.8561 348.009 74.0881 348.771 74.1023 349.638H71.1548ZM81.2844 360.213C80.1623 360.213 79.1964 359.986 78.3867 359.531C77.5818 359.072 76.9615 358.423 76.5259 357.585C76.0903 356.742 75.8725 355.746 75.8725 354.595C75.8725 353.473 76.0903 352.488 76.5259 351.641C76.9615 350.793 77.5747 350.133 78.3654 349.659C79.1609 349.186 80.0936 348.949 81.1637 348.949C81.8834 348.949 82.5534 349.065 83.1737 349.297C83.7987 349.524 84.3432 349.867 84.8072 350.327C85.2759 350.786 85.6405 351.364 85.9009 352.06C86.1613 352.751 86.2915 353.561 86.2915 354.489V355.32H77.0799V353.445H83.4435C83.4435 353.009 83.3488 352.623 83.1594 352.287C82.9701 351.951 82.7073 351.688 82.3711 351.499C82.0397 351.304 81.6538 351.207 81.2134 351.207C80.7541 351.207 80.3469 351.314 79.9918 351.527C79.6415 351.735 79.3668 352.017 79.168 352.372C78.9691 352.723 78.8673 353.113 78.8626 353.544V355.327C78.8626 355.866 78.962 356.333 79.1609 356.726C79.3645 357.119 79.6509 357.422 80.0202 357.635C80.3896 357.848 80.8275 357.955 81.3342 357.955C81.6703 357.955 81.9781 357.907 82.2575 357.812C82.5368 357.718 82.7759 357.576 82.9748 357.386C83.1737 357.197 83.3252 356.965 83.4293 356.69L86.2276 356.875C86.0856 357.547 85.7944 358.134 85.354 358.636C84.9184 359.134 84.355 359.522 83.6637 359.801C82.9772 360.076 82.1841 360.213 81.2844 360.213ZM91.2915 353.693V360H88.266V349.091H91.1495V351.016H91.2773C91.5188 350.381 91.9237 349.879 92.4918 349.51C93.06 349.136 93.7489 348.949 94.5586 348.949C95.3162 348.949 95.9767 349.115 96.5401 349.446C97.1036 349.777 97.5415 350.251 97.854 350.866C98.1665 351.477 98.3228 352.206 98.3228 353.054V360H95.2972V353.594C95.302 352.926 95.1315 352.405 94.7859 352.031C94.4402 351.652 93.9644 351.463 93.3583 351.463C92.9511 351.463 92.5913 351.551 92.2788 351.726C91.971 351.901 91.7295 352.157 91.5543 352.493C91.3839 352.824 91.2963 353.224 91.2915 353.693ZM106.51 349.091V351.364H99.9403V349.091H106.51ZM101.432 346.477H104.457V356.648C104.457 356.927 104.5 357.145 104.585 357.301C104.67 357.453 104.789 357.559 104.94 357.621C105.097 357.682 105.277 357.713 105.48 357.713C105.622 357.713 105.764 357.701 105.906 357.678C106.048 357.649 106.157 357.628 106.233 357.614L106.709 359.865C106.557 359.912 106.344 359.967 106.07 360.028C105.795 360.095 105.461 360.135 105.068 360.149C104.339 360.178 103.7 360.08 103.151 359.858C102.606 359.635 102.182 359.29 101.879 358.821C101.576 358.352 101.427 357.76 101.432 357.045V346.477ZM108.481 360V349.091H111.414V350.994H111.528C111.727 350.317 112.06 349.806 112.529 349.46C112.998 349.11 113.538 348.935 114.148 348.935C114.3 348.935 114.463 348.944 114.638 348.963C114.814 348.982 114.968 349.008 115.1 349.041V351.726C114.958 351.683 114.762 351.645 114.511 351.612C114.26 351.579 114.03 351.562 113.822 351.562C113.377 351.562 112.979 351.66 112.629 351.854C112.283 352.043 112.008 352.308 111.805 352.649C111.606 352.99 111.506 353.383 111.506 353.828V360H108.481ZM118.864 364.091C118.481 364.091 118.121 364.06 117.785 363.999C117.453 363.942 117.179 363.868 116.961 363.778L117.643 361.52C117.998 361.629 118.317 361.688 118.602 361.697C118.89 361.707 119.139 361.641 119.347 361.499C119.56 361.357 119.733 361.115 119.866 360.774L120.043 360.312L116.13 349.091H119.312L121.57 357.102H121.684L123.964 349.091H127.167L122.927 361.179C122.723 361.766 122.446 362.277 122.096 362.713C121.75 363.153 121.312 363.492 120.782 363.729C120.252 363.97 119.612 364.091 118.864 364.091ZM139.211 349.091V351.364H132.478V349.091H139.211ZM134.019 360V348.303C134.019 347.512 134.173 346.856 134.48 346.335C134.793 345.814 135.219 345.424 135.759 345.163C136.299 344.903 136.912 344.773 137.598 344.773C138.062 344.773 138.486 344.808 138.87 344.879C139.258 344.95 139.547 345.014 139.736 345.071L139.196 347.344C139.078 347.306 138.931 347.27 138.756 347.237C138.586 347.204 138.41 347.188 138.23 347.188C137.785 347.188 137.475 347.292 137.3 347.5C137.125 347.704 137.037 347.99 137.037 348.359V360H134.019ZM141.059 360V349.091H143.992V350.994H144.106C144.305 350.317 144.638 349.806 145.107 349.46C145.576 349.11 146.116 348.935 146.727 348.935C146.878 348.935 147.041 348.944 147.217 348.963C147.392 348.982 147.546 349.008 147.678 349.041V351.726C147.536 351.683 147.34 351.645 147.089 351.612C146.838 351.579 146.608 351.562 146.4 351.562C145.955 351.562 145.557 351.66 145.207 351.854C144.861 352.043 144.586 352.308 144.383 352.649C144.184 352.99 144.085 353.383 144.085 353.828V360H141.059ZM153.664 360.213C152.56 360.213 151.606 359.979 150.801 359.51C150.001 359.036 149.383 358.378 148.948 357.536C148.512 356.688 148.294 355.705 148.294 354.588C148.294 353.461 148.512 352.476 148.948 351.634C149.383 350.786 150.001 350.128 150.801 349.659C151.606 349.186 152.56 348.949 153.664 348.949C154.767 348.949 155.719 349.186 156.519 349.659C157.324 350.128 157.944 350.786 158.38 351.634C158.815 352.476 159.033 353.461 159.033 354.588C159.033 355.705 158.815 356.688 158.38 357.536C157.944 358.378 157.324 359.036 156.519 359.51C155.719 359.979 154.767 360.213 153.664 360.213ZM153.678 357.869C154.18 357.869 154.599 357.727 154.935 357.443C155.271 357.154 155.525 356.761 155.695 356.264C155.87 355.767 155.958 355.201 155.958 354.567C155.958 353.932 155.87 353.366 155.695 352.869C155.525 352.372 155.271 351.979 154.935 351.69C154.599 351.402 154.18 351.257 153.678 351.257C153.171 351.257 152.745 351.402 152.4 351.69C152.059 351.979 151.801 352.372 151.625 352.869C151.455 353.366 151.37 353.932 151.37 354.567C151.37 355.201 151.455 355.767 151.625 356.264C151.801 356.761 152.059 357.154 152.4 357.443C152.745 357.727 153.171 357.869 153.678 357.869ZM164.026 353.693V360H161V349.091H163.884V351.016H164.012C164.253 350.381 164.658 349.879 165.226 349.51C165.794 349.136 166.483 348.949 167.293 348.949C168.051 348.949 168.711 349.115 169.275 349.446C169.838 349.777 170.276 350.251 170.588 350.866C170.901 351.477 171.057 352.206 171.057 353.054V360H168.032V353.594C168.036 352.926 167.866 352.405 167.52 352.031C167.175 351.652 166.699 351.463 166.093 351.463C165.685 351.463 165.326 351.551 165.013 351.726C164.705 351.901 164.464 352.157 164.289 352.493C164.118 352.824 164.031 353.224 164.026 353.693ZM179.244 349.091V351.364H172.675V349.091H179.244ZM174.166 346.477H177.192V356.648C177.192 356.927 177.234 357.145 177.32 357.301C177.405 357.453 177.523 357.559 177.675 357.621C177.831 357.682 178.011 357.713 178.214 357.713C178.357 357.713 178.499 357.701 178.641 357.678C178.783 357.649 178.892 357.628 178.967 357.614L179.443 359.865C179.292 359.912 179.079 359.967 178.804 360.028C178.529 360.095 178.196 360.135 177.803 360.149C177.073 360.178 176.434 360.08 175.885 359.858C175.34 359.635 174.917 359.29 174.614 358.821C174.311 358.352 174.161 357.76 174.166 357.045V346.477ZM186.07 360.213C184.947 360.213 183.982 359.986 183.172 359.531C182.367 359.072 181.747 358.423 181.311 357.585C180.875 356.742 180.658 355.746 180.658 354.595C180.658 353.473 180.875 352.488 181.311 351.641C181.747 350.793 182.36 350.133 183.151 349.659C183.946 349.186 184.879 348.949 185.949 348.949C186.669 348.949 187.339 349.065 187.959 349.297C188.584 349.524 189.128 349.867 189.592 350.327C190.061 350.786 190.426 351.364 190.686 352.06C190.946 352.751 191.077 353.561 191.077 354.489V355.32H181.865V353.445H188.229C188.229 353.009 188.134 352.623 187.945 352.287C187.755 351.951 187.492 351.688 187.156 351.499C186.825 351.304 186.439 351.207 185.999 351.207C185.539 351.207 185.132 351.314 184.777 351.527C184.427 351.735 184.152 352.017 183.953 352.372C183.754 352.723 183.652 353.113 183.648 353.544V355.327C183.648 355.866 183.747 356.333 183.946 356.726C184.15 357.119 184.436 357.422 184.805 357.635C185.175 357.848 185.613 357.955 186.119 357.955C186.455 357.955 186.763 357.907 187.043 357.812C187.322 357.718 187.561 357.576 187.76 357.386C187.959 357.197 188.11 356.965 188.214 356.69L191.013 356.875C190.871 357.547 190.58 358.134 190.139 358.636C189.704 359.134 189.14 359.522 188.449 359.801C187.762 360.076 186.969 360.213 186.07 360.213ZM196.077 353.693V360H193.051V349.091H195.935V351.016H196.062C196.304 350.381 196.709 349.879 197.277 349.51C197.845 349.136 198.534 348.949 199.344 348.949C200.101 348.949 200.762 349.115 201.325 349.446C201.889 349.777 202.327 350.251 202.639 350.866C202.952 351.477 203.108 352.206 203.108 353.054V360H200.082V353.594C200.087 352.926 199.917 352.405 199.571 352.031C199.225 351.652 198.75 351.463 198.143 351.463C197.736 351.463 197.376 351.551 197.064 351.726C196.756 351.901 196.515 352.157 196.339 352.493C196.169 352.824 196.081 353.224 196.077 353.693ZM209.512 360.178C208.684 360.178 207.933 359.964 207.261 359.538C206.593 359.107 206.063 358.475 205.67 357.642C205.282 356.804 205.088 355.777 205.088 354.56C205.088 353.31 205.289 352.27 205.691 351.442C206.094 350.608 206.629 349.986 207.297 349.574C207.969 349.157 208.705 348.949 209.505 348.949C210.116 348.949 210.625 349.053 211.032 349.261C211.444 349.465 211.776 349.721 212.027 350.028C212.282 350.331 212.476 350.63 212.609 350.923H212.701V345.455H215.72V360H212.737V358.253H212.609C212.467 358.556 212.266 358.857 212.005 359.155C211.75 359.448 211.416 359.692 211.004 359.886C210.597 360.08 210.1 360.178 209.512 360.178ZM210.471 357.77C210.959 357.77 211.371 357.637 211.707 357.372C212.048 357.102 212.308 356.726 212.488 356.243C212.673 355.76 212.765 355.194 212.765 354.545C212.765 353.897 212.675 353.333 212.495 352.855C212.315 352.377 212.055 352.008 211.714 351.747C211.373 351.487 210.959 351.357 210.471 351.357C209.974 351.357 209.555 351.491 209.214 351.761C208.873 352.031 208.615 352.405 208.44 352.884C208.265 353.362 208.177 353.916 208.177 354.545C208.177 355.18 208.265 355.741 208.44 356.229C208.62 356.712 208.878 357.09 209.214 357.365C209.555 357.635 209.974 357.77 210.471 357.77Z" fill="black"/>
<rect x="328.5" y="245.5" width="117" height="54" rx="14.5" fill="#CCD2D7" stroke="black"/>
<path d="M364.155 269.638C364.098 269.065 363.854 268.62 363.423 268.303C362.992 267.985 362.408 267.827 361.669 267.827C361.167 267.827 360.743 267.898 360.398 268.04C360.052 268.177 359.787 268.369 359.602 268.615C359.422 268.861 359.332 269.141 359.332 269.453C359.323 269.714 359.377 269.941 359.496 270.135C359.619 270.329 359.787 270.497 360 270.639C360.213 270.777 360.459 270.897 360.739 271.001C361.018 271.101 361.316 271.186 361.634 271.257L362.94 271.57C363.575 271.712 364.157 271.901 364.688 272.138C365.218 272.375 365.677 272.666 366.065 273.011C366.454 273.357 366.754 273.764 366.967 274.233C367.185 274.702 367.296 275.239 367.301 275.845C367.296 276.735 367.069 277.507 366.619 278.161C366.174 278.809 365.53 279.313 364.688 279.673C363.849 280.028 362.839 280.206 361.655 280.206C360.481 280.206 359.458 280.026 358.587 279.666C357.72 279.306 357.043 278.774 356.555 278.068C356.072 277.358 355.819 276.48 355.795 275.433H358.771C358.804 275.921 358.944 276.328 359.19 276.655C359.441 276.977 359.775 277.221 360.192 277.386C360.613 277.547 361.089 277.628 361.619 277.628C362.14 277.628 362.592 277.552 362.976 277.401C363.364 277.249 363.665 277.038 363.878 276.768C364.091 276.499 364.197 276.188 364.197 275.838C364.197 275.511 364.1 275.237 363.906 275.014C363.717 274.792 363.438 274.602 363.068 274.446C362.704 274.29 362.256 274.148 361.726 274.02L360.142 273.622C358.916 273.324 357.947 272.857 357.237 272.223C356.527 271.589 356.174 270.734 356.179 269.659C356.174 268.778 356.409 268.009 356.882 267.351C357.36 266.693 358.016 266.179 358.849 265.81C359.683 265.44 360.63 265.256 361.69 265.256C362.77 265.256 363.712 265.44 364.517 265.81C365.327 266.179 365.956 266.693 366.406 267.351C366.856 268.009 367.088 268.771 367.102 269.638H364.155ZM372.338 273.693V280H369.313V269.091H372.196V271.016H372.324C372.566 270.381 372.971 269.879 373.539 269.51C374.107 269.136 374.796 268.949 375.605 268.949C376.363 268.949 377.024 269.115 377.587 269.446C378.15 269.777 378.588 270.251 378.901 270.866C379.213 271.477 379.37 272.206 379.37 273.054V280H376.344V273.594C376.349 272.926 376.178 272.405 375.833 272.031C375.487 271.652 375.011 271.463 374.405 271.463C373.998 271.463 373.638 271.551 373.326 271.726C373.018 271.901 372.776 272.157 372.601 272.493C372.431 272.824 372.343 273.224 372.338 273.693ZM388.75 275.355V269.091H391.776V280H388.871V278.018H388.757C388.511 278.658 388.101 279.171 387.528 279.56C386.96 279.948 386.267 280.142 385.447 280.142C384.718 280.142 384.077 279.976 383.523 279.645C382.969 279.313 382.536 278.842 382.223 278.232C381.915 277.621 381.759 276.889 381.754 276.037V269.091H384.78V275.497C384.785 276.141 384.957 276.65 385.298 277.024C385.639 277.398 386.096 277.585 386.669 277.585C387.034 277.585 387.375 277.502 387.692 277.337C388.009 277.166 388.265 276.915 388.459 276.584C388.658 276.252 388.755 275.843 388.75 275.355ZM394.252 280V265.455H397.278V270.923H397.37C397.503 270.63 397.695 270.331 397.946 270.028C398.201 269.721 398.533 269.465 398.94 269.261C399.352 269.053 399.863 268.949 400.474 268.949C401.27 268.949 402.003 269.157 402.676 269.574C403.348 269.986 403.886 270.608 404.288 271.442C404.69 272.27 404.892 273.31 404.892 274.56C404.892 275.777 404.695 276.804 404.302 277.642C403.914 278.475 403.384 279.107 402.711 279.538C402.044 279.964 401.296 280.178 400.467 280.178C399.88 280.178 399.38 280.08 398.968 279.886C398.561 279.692 398.227 279.448 397.967 279.155C397.707 278.857 397.508 278.556 397.37 278.253H397.235V280H394.252ZM397.214 274.545C397.214 275.194 397.304 275.76 397.484 276.243C397.664 276.726 397.924 277.102 398.265 277.372C398.606 277.637 399.02 277.77 399.508 277.77C400.001 277.77 400.417 277.635 400.758 277.365C401.099 277.09 401.357 276.712 401.532 276.229C401.712 275.741 401.802 275.18 401.802 274.545C401.802 273.916 401.715 273.362 401.539 272.884C401.364 272.405 401.106 272.031 400.765 271.761C400.424 271.491 400.005 271.357 399.508 271.357C399.016 271.357 398.599 271.487 398.258 271.747C397.922 272.008 397.664 272.377 397.484 272.855C397.304 273.333 397.214 273.897 397.214 274.545ZM410.021 280.206C409.325 280.206 408.705 280.085 408.161 279.844C407.616 279.598 407.185 279.235 406.868 278.757C406.555 278.274 406.399 277.673 406.399 276.953C406.399 276.347 406.51 275.838 406.733 275.426C406.955 275.014 407.259 274.683 407.642 274.432C408.026 274.181 408.461 273.991 408.949 273.864C409.441 273.736 409.957 273.646 410.497 273.594C411.132 273.527 411.643 273.466 412.031 273.409C412.42 273.348 412.701 273.258 412.876 273.139C413.052 273.021 413.139 272.846 413.139 272.614V272.571C413.139 272.121 412.997 271.773 412.713 271.527C412.434 271.281 412.036 271.158 411.52 271.158C410.975 271.158 410.542 271.278 410.22 271.52C409.898 271.757 409.685 272.055 409.581 272.415L406.783 272.188C406.925 271.525 407.204 270.952 407.621 270.469C408.037 269.981 408.575 269.607 409.233 269.347C409.896 269.081 410.663 268.949 411.534 268.949C412.14 268.949 412.72 269.02 413.274 269.162C413.833 269.304 414.328 269.524 414.759 269.822C415.194 270.121 415.537 270.504 415.788 270.973C416.039 271.437 416.165 271.993 416.165 272.642V280H413.295V278.487H413.21C413.035 278.828 412.801 279.129 412.507 279.389C412.214 279.645 411.861 279.846 411.449 279.993C411.037 280.135 410.561 280.206 410.021 280.206ZM410.888 278.118C411.333 278.118 411.726 278.03 412.067 277.855C412.408 277.675 412.675 277.434 412.869 277.131C413.063 276.828 413.161 276.484 413.161 276.101V274.943C413.066 275.005 412.936 275.062 412.77 275.114C412.609 275.161 412.427 275.206 412.223 275.249C412.019 275.286 411.816 275.322 411.612 275.355C411.409 275.384 411.224 275.41 411.058 275.433C410.703 275.485 410.393 275.568 410.128 275.682C409.863 275.795 409.657 275.949 409.51 276.143C409.363 276.333 409.29 276.57 409.29 276.854C409.29 277.266 409.439 277.58 409.737 277.798C410.04 278.011 410.424 278.118 410.888 278.118Z" fill="black"/>
<rect x="539.5" y="244.5" width="163" height="54" rx="14.5" fill="#CCD2D7" stroke="black"/>
<path d="M580.098 269.547H576.987C576.93 269.144 576.814 268.787 576.639 268.474C576.464 268.157 576.239 267.887 575.964 267.665C575.69 267.442 575.373 267.272 575.013 267.153C574.658 267.035 574.272 266.976 573.855 266.976C573.102 266.976 572.446 267.163 571.888 267.537C571.329 267.906 570.896 268.446 570.588 269.156C570.28 269.862 570.126 270.719 570.126 271.727C570.126 272.764 570.28 273.635 570.588 274.341C570.901 275.046 571.336 275.579 571.895 275.939C572.454 276.299 573.1 276.479 573.834 276.479C574.246 276.479 574.627 276.424 574.977 276.315C575.332 276.206 575.647 276.048 575.922 275.839C576.196 275.626 576.424 275.368 576.604 275.065C576.788 274.762 576.916 274.417 576.987 274.028L580.098 274.043C580.018 274.71 579.816 275.354 579.494 275.974C579.177 276.59 578.749 277.142 578.209 277.629C577.674 278.112 577.035 278.496 576.291 278.78C575.553 279.059 574.717 279.199 573.784 279.199C572.487 279.199 571.327 278.905 570.304 278.318C569.286 277.731 568.481 276.881 567.889 275.768C567.302 274.656 567.009 273.309 567.009 271.727C567.009 270.141 567.307 268.792 567.903 267.679C568.5 266.566 569.31 265.719 570.332 265.136C571.355 264.549 572.506 264.256 573.784 264.256C574.627 264.256 575.408 264.374 576.128 264.611C576.852 264.848 577.494 265.193 578.053 265.648C578.611 266.098 579.066 266.649 579.416 267.303C579.771 267.956 579.999 268.704 580.098 269.547ZM585.272 264.455V279H582.246V264.455H585.272ZM587.696 279V268.091H590.721V279H587.696ZM589.216 266.685C588.766 266.685 588.38 266.536 588.058 266.237C587.741 265.934 587.582 265.572 587.582 265.151C587.582 264.734 587.741 264.376 588.058 264.078C588.38 263.775 588.766 263.624 589.216 263.624C589.665 263.624 590.049 263.775 590.366 264.078C590.688 264.376 590.849 264.734 590.849 265.151C590.849 265.572 590.688 265.934 590.366 266.237C590.049 266.536 589.665 266.685 589.216 266.685ZM598.074 279.213C596.956 279.213 595.995 278.976 595.19 278.503C594.39 278.025 593.775 277.362 593.344 276.514C592.918 275.667 592.705 274.691 592.705 273.588C592.705 272.471 592.92 271.491 593.351 270.648C593.786 269.8 594.404 269.14 595.205 268.666C596.005 268.188 596.956 267.949 598.06 267.949C599.011 267.949 599.845 268.122 600.56 268.467C601.275 268.813 601.84 269.298 602.257 269.923C602.674 270.548 602.903 271.282 602.946 272.125H600.091C600.01 271.58 599.797 271.143 599.452 270.811C599.111 270.475 598.663 270.307 598.109 270.307C597.641 270.307 597.231 270.435 596.881 270.69C596.535 270.941 596.265 271.308 596.071 271.791C595.877 272.274 595.78 272.859 595.78 273.545C595.78 274.241 595.875 274.833 596.064 275.321C596.258 275.809 596.53 276.18 596.881 276.436C597.231 276.692 597.641 276.82 598.109 276.82C598.455 276.82 598.765 276.749 599.04 276.607C599.319 276.464 599.549 276.259 599.729 275.989C599.913 275.714 600.034 275.385 600.091 275.001H602.946C602.899 275.835 602.671 276.569 602.264 277.203C601.862 277.833 601.305 278.325 600.595 278.68C599.885 279.036 599.045 279.213 598.074 279.213ZM607.625 275.861L607.632 272.232H608.072L611.566 268.091H615.039L610.345 273.574H609.627L607.625 275.861ZM604.883 279V264.455H607.909V279H604.883ZM611.701 279L608.491 274.249L610.508 272.111L615.245 279H611.701ZM619.549 272.693V279H616.524V264.455H619.464V270.016H619.592C619.838 269.372 620.236 268.867 620.785 268.503C621.334 268.134 622.023 267.949 622.852 267.949C623.609 267.949 624.27 268.115 624.833 268.446C625.402 268.773 625.842 269.244 626.154 269.859C626.472 270.47 626.628 271.202 626.623 272.054V279H623.598V272.594C623.602 271.921 623.432 271.398 623.086 271.024C622.745 270.65 622.267 270.463 621.652 270.463C621.24 270.463 620.875 270.551 620.558 270.726C620.245 270.901 619.999 271.157 619.819 271.493C619.644 271.824 619.554 272.224 619.549 272.693ZM633.933 279.213C632.83 279.213 631.876 278.979 631.071 278.51C630.271 278.036 629.653 277.378 629.217 276.536C628.782 275.688 628.564 274.705 628.564 273.588C628.564 272.461 628.782 271.476 629.217 270.634C629.653 269.786 630.271 269.128 631.071 268.659C631.876 268.186 632.83 267.949 633.933 267.949C635.036 267.949 635.988 268.186 636.788 268.659C637.593 269.128 638.214 269.786 638.649 270.634C639.085 271.476 639.303 272.461 639.303 273.588C639.303 274.705 639.085 275.688 638.649 276.536C638.214 277.378 637.593 278.036 636.788 278.51C635.988 278.979 635.036 279.213 633.933 279.213ZM633.947 276.869C634.449 276.869 634.868 276.727 635.205 276.443C635.541 276.154 635.794 275.761 635.964 275.264C636.14 274.767 636.227 274.201 636.227 273.567C636.227 272.932 636.14 272.366 635.964 271.869C635.794 271.372 635.541 270.979 635.205 270.69C634.868 270.402 634.449 270.257 633.947 270.257C633.441 270.257 633.015 270.402 632.669 270.69C632.328 270.979 632.07 271.372 631.895 271.869C631.724 272.366 631.639 272.932 631.639 273.567C631.639 274.201 631.724 274.767 631.895 275.264C632.07 275.761 632.328 276.154 632.669 276.443C633.015 276.727 633.441 276.869 633.947 276.869ZM648.266 274.355V268.091H651.291V279H648.386V277.018H648.273C648.027 277.658 647.617 278.171 647.044 278.56C646.476 278.948 645.782 279.142 644.963 279.142C644.234 279.142 643.592 278.976 643.038 278.645C642.484 278.313 642.051 277.842 641.739 277.232C641.431 276.621 641.275 275.889 641.27 275.037V268.091H644.295V274.497C644.3 275.141 644.473 275.65 644.814 276.024C645.155 276.398 645.612 276.585 646.185 276.585C646.549 276.585 646.89 276.502 647.207 276.337C647.525 276.166 647.78 275.915 647.974 275.584C648.173 275.252 648.27 274.843 648.266 274.355ZM662.788 271.202L660.018 271.372C659.971 271.135 659.869 270.922 659.713 270.733C659.556 270.539 659.35 270.385 659.095 270.271C658.844 270.153 658.543 270.094 658.193 270.094C657.724 270.094 657.329 270.193 657.007 270.392C656.685 270.586 656.524 270.847 656.524 271.173C656.524 271.434 656.628 271.654 656.836 271.834C657.045 272.014 657.402 272.158 657.909 272.267L659.883 272.665C660.944 272.883 661.734 273.233 662.255 273.716C662.776 274.199 663.037 274.833 663.037 275.619C663.037 276.334 662.826 276.962 662.404 277.501C661.988 278.041 661.415 278.463 660.686 278.766C659.961 279.064 659.126 279.213 658.179 279.213C656.734 279.213 655.584 278.912 654.727 278.311C653.875 277.705 653.375 276.881 653.228 275.839L656.204 275.683C656.294 276.124 656.512 276.46 656.858 276.692C657.203 276.919 657.646 277.033 658.186 277.033C658.716 277.033 659.142 276.931 659.464 276.727C659.791 276.519 659.957 276.251 659.961 275.925C659.957 275.65 659.841 275.425 659.613 275.25C659.386 275.07 659.036 274.933 658.562 274.838L656.673 274.462C655.608 274.249 654.815 273.879 654.294 273.354C653.778 272.828 653.52 272.158 653.52 271.344C653.52 270.643 653.709 270.039 654.088 269.533C654.471 269.026 655.009 268.635 655.7 268.361C656.396 268.086 657.21 267.949 658.143 267.949C659.521 267.949 660.605 268.24 661.396 268.822C662.191 269.405 662.655 270.198 662.788 271.202ZM669.913 279.213C668.791 279.213 667.825 278.986 667.016 278.531C666.211 278.072 665.59 277.423 665.155 276.585C664.719 275.742 664.501 274.746 664.501 273.595C664.501 272.473 664.719 271.488 665.155 270.641C665.59 269.793 666.204 269.133 666.994 268.659C667.79 268.186 668.723 267.949 669.793 267.949C670.512 267.949 671.182 268.065 671.803 268.297C672.428 268.524 672.972 268.867 673.436 269.327C673.905 269.786 674.269 270.364 674.53 271.06C674.79 271.751 674.92 272.561 674.92 273.489V274.32H665.709V272.445H672.072C672.072 272.009 671.978 271.623 671.788 271.287C671.599 270.951 671.336 270.688 671 270.499C670.669 270.304 670.283 270.207 669.842 270.207C669.383 270.207 668.976 270.314 668.621 270.527C668.27 270.735 667.996 271.017 667.797 271.372C667.598 271.723 667.496 272.113 667.491 272.544V274.327C667.491 274.866 667.591 275.333 667.79 275.726C667.993 276.119 668.28 276.422 668.649 276.635C669.018 276.848 669.456 276.955 669.963 276.955C670.299 276.955 670.607 276.907 670.886 276.812C671.166 276.718 671.405 276.576 671.604 276.386C671.803 276.197 671.954 275.965 672.058 275.69L674.857 275.875C674.714 276.547 674.423 277.134 673.983 277.636C673.547 278.134 672.984 278.522 672.293 278.801C671.606 279.076 670.813 279.213 669.913 279.213Z" fill="black"/>
<path d="M328 271.5L323 268.613V274.387L328 271.5ZM235 272H323.5V271H235V272Z" fill="#DFDFDF"/>
<path d="M139 300L136.113 305H141.887L139 300ZM139.5 327V304.5H138.5V327H139.5Z" fill="#DFDFDF"/>
<path d="M539 271L534 268.113V273.887L539 271ZM446 271.5H534.5V270.5H446V271.5Z" fill="#DFDFDF"/>
<path d="M45.2642 212V197.455H51.0028C52.1013 197.455 53.0388 197.651 53.8153 198.044C54.5966 198.432 55.1908 198.984 55.598 199.699C56.0099 200.409 56.2159 201.245 56.2159 202.206C56.2159 203.172 56.0076 204.003 55.5909 204.699C55.1742 205.39 54.5705 205.92 53.7798 206.29C52.9938 206.659 52.0421 206.844 50.9247 206.844H47.0824V204.372H50.4276C51.0147 204.372 51.5024 204.292 51.8906 204.131C52.2789 203.97 52.5677 203.728 52.7571 203.406C52.9512 203.084 53.0483 202.684 53.0483 202.206C53.0483 201.723 52.9512 201.316 52.7571 200.984C52.5677 200.653 52.2765 200.402 51.8835 200.232C51.4953 200.056 51.0052 199.969 50.4134 199.969H48.3395V212H45.2642ZM53.1193 205.381L56.7344 212H53.3395L49.8026 205.381H53.1193ZM63.1282 212.213C62.006 212.213 61.0401 211.986 60.2305 211.531C59.4255 211.072 58.8053 210.423 58.3697 209.585C57.9341 208.742 57.7163 207.746 57.7163 206.595C57.7163 205.473 57.9341 204.488 58.3697 203.641C58.8053 202.793 59.4184 202.133 60.2092 201.659C61.0046 201.186 61.9374 200.949 63.0075 200.949C63.7272 200.949 64.3971 201.065 65.0174 201.297C65.6424 201.524 66.1869 201.867 66.6509 202.327C67.1197 202.786 67.4843 203.364 67.7447 204.06C68.0051 204.751 68.1353 205.561 68.1353 206.489V207.32H58.9237V205.445H65.2873C65.2873 205.009 65.1926 204.623 65.0032 204.287C64.8138 203.951 64.551 203.688 64.2148 203.499C63.8834 203.304 63.4975 203.207 63.0572 203.207C62.5979 203.207 62.1907 203.314 61.8356 203.527C61.4852 203.735 61.2106 204.017 61.0117 204.372C60.8129 204.723 60.7111 205.113 60.7063 205.544V207.327C60.7063 207.866 60.8058 208.333 61.0046 208.726C61.2082 209.119 61.4947 209.422 61.864 209.635C62.2333 209.848 62.6713 209.955 63.1779 209.955C63.5141 209.955 63.8219 209.907 64.1012 209.812C64.3806 209.718 64.6197 209.576 64.8185 209.386C65.0174 209.197 65.1689 208.965 65.2731 208.69L68.0714 208.875C67.9293 209.547 67.6381 210.134 67.1978 210.636C66.7622 211.134 66.1987 211.522 65.5075 211.801C64.8209 212.076 64.0278 212.213 63.1282 212.213ZM73.2205 212.206C72.5245 212.206 71.9042 212.085 71.3597 211.844C70.8152 211.598 70.3844 211.235 70.0671 210.757C69.7546 210.274 69.5984 209.673 69.5984 208.953C69.5984 208.347 69.7096 207.838 69.9322 207.426C70.1547 207.014 70.4577 206.683 70.8413 206.432C71.2248 206.181 71.6604 205.991 72.1481 205.864C72.6405 205.736 73.1566 205.646 73.6964 205.594C74.3308 205.527 74.8422 205.466 75.2305 205.409C75.6187 205.348 75.9005 205.258 76.0756 205.139C76.2508 205.021 76.3384 204.846 76.3384 204.614V204.571C76.3384 204.121 76.1964 203.773 75.9123 203.527C75.6329 203.281 75.2352 203.158 74.7191 203.158C74.1746 203.158 73.7414 203.278 73.4194 203.52C73.0974 203.757 72.8844 204.055 72.7802 204.415L69.9819 204.188C70.1239 203.525 70.4033 202.952 70.82 202.469C71.2366 201.981 71.774 201.607 72.4322 201.347C73.0951 201.081 73.8621 200.949 74.7333 200.949C75.3394 200.949 75.9194 201.02 76.4734 201.162C77.0321 201.304 77.5269 201.524 77.9577 201.822C78.3933 202.121 78.7366 202.504 78.9876 202.973C79.2385 203.437 79.364 203.993 79.364 204.642V212H76.4947V210.487H76.4094C76.2343 210.828 75.9999 211.129 75.7063 211.389C75.4128 211.645 75.06 211.846 74.6481 211.993C74.2362 212.135 73.7603 212.206 73.2205 212.206ZM74.087 210.118C74.5321 210.118 74.9251 210.03 75.266 209.855C75.6069 209.675 75.8744 209.434 76.0685 209.131C76.2627 208.828 76.3597 208.484 76.3597 208.101V206.943C76.265 207.005 76.1348 207.062 75.9691 207.114C75.8081 207.161 75.6258 207.206 75.4222 207.249C75.2186 207.286 75.015 207.322 74.8114 207.355C74.6078 207.384 74.4232 207.41 74.2575 207.433C73.9023 207.485 73.5922 207.568 73.3271 207.682C73.0619 207.795 72.8559 207.949 72.7092 208.143C72.5624 208.333 72.489 208.57 72.489 208.854C72.489 209.266 72.6381 209.58 72.9364 209.798C73.2395 210.011 73.623 210.118 74.087 210.118ZM85.7312 212.178C84.9026 212.178 84.1521 211.964 83.4798 211.538C82.8121 211.107 82.2818 210.475 81.8888 209.642C81.5006 208.804 81.3065 207.777 81.3065 206.56C81.3065 205.31 81.5077 204.27 81.9102 203.442C82.3126 202.608 82.8477 201.986 83.5153 201.574C84.1876 201.157 84.9239 200.949 85.7241 200.949C86.3349 200.949 86.8439 201.053 87.2511 201.261C87.663 201.465 87.9944 201.721 88.2454 202.028C88.5011 202.331 88.6952 202.63 88.8278 202.923H88.9201V197.455H91.9386V212H88.9556V210.253H88.8278C88.6857 210.556 88.4845 210.857 88.2241 211.155C87.9684 211.448 87.6346 211.692 87.2227 211.886C86.8155 212.08 86.3183 212.178 85.7312 212.178ZM86.69 209.77C87.1777 209.77 87.5896 209.637 87.9258 209.372C88.2667 209.102 88.5271 208.726 88.707 208.243C88.8917 207.76 88.984 207.194 88.984 206.545C88.984 205.897 88.8941 205.333 88.7141 204.855C88.5342 204.377 88.2738 204.008 87.9329 203.747C87.592 203.487 87.1777 203.357 86.69 203.357C86.1928 203.357 85.7738 203.491 85.4329 203.761C85.092 204.031 84.8339 204.405 84.6587 204.884C84.4835 205.362 84.396 205.916 84.396 206.545C84.396 207.18 84.4835 207.741 84.6587 208.229C84.8387 208.712 85.0967 209.09 85.4329 209.365C85.7738 209.635 86.1928 209.77 86.69 209.77ZM99.055 216.091V201.091H102.038V202.923H102.173C102.306 202.63 102.497 202.331 102.748 202.028C103.004 201.721 103.335 201.465 103.743 201.261C104.154 201.053 104.666 200.949 105.277 200.949C106.072 200.949 106.806 201.157 107.478 201.574C108.151 201.986 108.688 202.608 109.091 203.442C109.493 204.27 109.694 205.31 109.694 206.56C109.694 207.777 109.498 208.804 109.105 209.642C108.717 210.475 108.186 211.107 107.514 211.538C106.846 211.964 106.098 212.178 105.27 212.178C104.682 212.178 104.183 212.08 103.771 211.886C103.364 211.692 103.03 211.448 102.77 211.155C102.509 210.857 102.31 210.556 102.173 210.253H102.081V216.091H99.055ZM102.017 206.545C102.017 207.194 102.107 207.76 102.287 208.243C102.467 208.726 102.727 209.102 103.068 209.372C103.409 209.637 103.823 209.77 104.311 209.77C104.803 209.77 105.22 209.635 105.561 209.365C105.902 209.09 106.16 208.712 106.335 208.229C106.515 207.741 106.605 207.18 106.605 206.545C106.605 205.916 106.517 205.362 106.342 204.884C106.167 204.405 105.909 204.031 105.568 203.761C105.227 203.491 104.808 203.357 104.311 203.357C103.818 203.357 103.402 203.487 103.061 203.747C102.725 204.008 102.467 204.377 102.287 204.855C102.107 205.333 102.017 205.897 102.017 206.545ZM114.822 212.206C114.126 212.206 113.506 212.085 112.961 211.844C112.417 211.598 111.986 211.235 111.669 210.757C111.356 210.274 111.2 209.673 111.2 208.953C111.2 208.347 111.311 207.838 111.534 207.426C111.756 207.014 112.059 206.683 112.443 206.432C112.826 206.181 113.262 205.991 113.75 205.864C114.242 205.736 114.758 205.646 115.298 205.594C115.932 205.527 116.444 205.466 116.832 205.409C117.22 205.348 117.502 205.258 117.677 205.139C117.852 205.021 117.94 204.846 117.94 204.614V204.571C117.94 204.121 117.798 203.773 117.514 203.527C117.234 203.281 116.837 203.158 116.321 203.158C115.776 203.158 115.343 203.278 115.021 203.52C114.699 203.757 114.486 204.055 114.382 204.415L111.583 204.188C111.725 203.525 112.005 202.952 112.422 202.469C112.838 201.981 113.376 201.607 114.034 201.347C114.697 201.081 115.464 200.949 116.335 200.949C116.941 200.949 117.521 201.02 118.075 201.162C118.634 201.304 119.128 201.524 119.559 201.822C119.995 202.121 120.338 202.504 120.589 202.973C120.84 203.437 120.966 203.993 120.966 204.642V212H118.096V210.487H118.011C117.836 210.828 117.601 211.129 117.308 211.389C117.014 211.645 116.662 211.846 116.25 211.993C115.838 212.135 115.362 212.206 114.822 212.206ZM115.689 210.118C116.134 210.118 116.527 210.03 116.868 209.855C117.208 209.675 117.476 209.434 117.67 209.131C117.864 208.828 117.961 208.484 117.961 208.101V206.943C117.867 207.005 117.736 207.062 117.571 207.114C117.41 207.161 117.227 207.206 117.024 207.249C116.82 207.286 116.617 207.322 116.413 207.355C116.209 207.384 116.025 207.41 115.859 207.433C115.504 207.485 115.194 207.568 114.929 207.682C114.663 207.795 114.458 207.949 114.311 208.143C114.164 208.333 114.091 208.57 114.091 208.854C114.091 209.266 114.24 209.58 114.538 209.798C114.841 210.011 115.225 210.118 115.689 210.118ZM129.115 201.091V203.364H122.546V201.091H129.115ZM124.037 198.477H127.063V208.648C127.063 208.927 127.105 209.145 127.191 209.301C127.276 209.453 127.394 209.559 127.546 209.621C127.702 209.682 127.882 209.713 128.086 209.713C128.228 209.713 128.37 209.701 128.512 209.678C128.654 209.649 128.763 209.628 128.838 209.614L129.314 211.865C129.163 211.912 128.95 211.967 128.675 212.028C128.4 212.095 128.067 212.135 127.674 212.149C126.944 212.178 126.305 212.08 125.756 211.858C125.212 211.635 124.788 211.29 124.485 210.821C124.182 210.352 124.033 209.76 124.037 209.045V198.477ZM134.346 205.693V212H131.321V197.455H134.261V203.016H134.389C134.635 202.372 135.033 201.867 135.582 201.503C136.131 201.134 136.82 200.949 137.649 200.949C138.406 200.949 139.067 201.115 139.63 201.446C140.199 201.773 140.639 202.244 140.951 202.859C141.269 203.47 141.425 204.202 141.42 205.054V212H138.395V205.594C138.399 204.921 138.229 204.398 137.883 204.024C137.542 203.65 137.064 203.463 136.449 203.463C136.037 203.463 135.672 203.551 135.355 203.726C135.042 203.901 134.796 204.157 134.616 204.493C134.441 204.824 134.351 205.224 134.346 205.693Z" fill="#D2D4E1"/>
</svg>
