<svg width="80" height="80" viewBox="0 0 80 80" fill="none" xmlns="http://www.w3.org/2000/svg">
<path d="M43.7001 4.99071C44.8235 5.63974 45.7565 6.57329 46.4055 7.69758L79.0112 64.2533C79.6594 65.3784 80.0004 66.6543 80 67.9531C79.9996 69.2519 79.6578 70.5276 79.009 71.6523C78.3601 72.7769 77.4271 73.7108 76.3036 74.3601C75.18 75.0094 73.9056 75.3513 72.6083 75.3513H64.9529C65.0604 73.2954 65.0496 71.234 64.9529 69.1726H72.5815C72.7976 69.1762 73.0109 69.1222 73.1993 69.0161C73.3878 68.9101 73.5448 68.7558 73.6541 68.5691C73.7635 68.3824 73.8214 68.17 73.8218 67.9536C73.8223 67.7371 73.7653 67.5245 73.6567 67.3373L41.0456 10.7869C40.9385 10.6014 40.7844 10.4474 40.599 10.3403C40.4136 10.2333 40.2033 10.1769 39.9892 10.1769C39.7752 10.1769 39.5649 10.2333 39.3795 10.3403C39.1941 10.4474 39.04 10.6014 38.9329 10.7869L31.4548 23.7741C39.5095 29.032 46.1283 36.2168 50.7127 44.679C55.2971 53.1412 57.7024 62.6138 57.7113 72.2405V75.3244H38.0082V72.2351C38.0029 66.0687 36.5056 59.9953 33.6445 54.5346C30.7833 49.0738 26.6435 44.3882 21.579 40.8786L17.8803 47.2941C21.832 50.1453 25.05 53.8962 27.2691 58.2373C29.4881 62.5784 30.6445 67.3854 30.643 72.262V75.346H7.39166C6.09438 75.3459 4.81996 75.004 3.69644 74.3547C2.57292 73.7054 1.63987 72.7715 0.991024 71.6469C0.342179 70.5223 0.000391494 69.2465 0 67.9477C-0.000390822 66.649 0.340627 65.373 0.988795 64.2479L5.64982 56.0994C7.61336 56.7885 9.4351 57.8299 11.0259 59.1726L6.31645 67.3373C6.20785 67.5245 6.15085 67.7371 6.1513 67.9536C6.15175 68.17 6.20962 68.3824 6.319 68.5691C6.42837 68.7558 6.58533 68.9101 6.7738 69.0161C6.96227 69.1222 7.17549 69.1762 7.39166 69.1726H24.2885C23.7844 65.424 22.4353 61.8393 20.3434 58.6895C18.2516 55.5397 15.4717 52.9074 12.214 50.9917L9.52594 49.447L19.3426 32.3586L22.0306 33.8979C28.3061 37.5245 33.5971 42.6368 37.44 48.7868C41.2829 54.9368 43.5602 61.9366 44.0723 69.1726H51.4698C50.9528 60.6432 48.3339 52.3747 43.847 45.1056C39.3601 37.8364 33.1448 31.7929 25.7562 27.5147L23.0682 25.97L33.6052 7.69758C34.2542 6.57329 35.1873 5.63974 36.3107 4.99071C37.4341 4.34168 38.7083 4 40.0054 4C41.3024 4 42.5767 4.34168 43.7001 4.99071Z" fill="#1D1127"/>
	<style>
    @media (prefers-color-scheme:dark){:root{filter:invert(100%)}}
  </style>
</svg>
